<svg class="svg-icon" style="width: 1em;height: 1em;vertical-align: middle;fill: currentColor;overflow: hidden;" viewBox="0 0 1024 1024" version="1.1" xmlns="http://www.w3.org/2000/svg"><path d="M341.333333 448h-128v-128h-85.333333v128H0v85.333333h128v128h85.333333v-128H341.333333v-85.333333z m426.666667 42.666667c72.533333 0 128-55.466667 128-128s-55.466667-128-128-128c-12.8 0-25.6 4.266667-38.4 4.266666 25.6 38.4 38.4 76.8 38.4 123.733334s-12.8 85.333333-38.4 123.733333c12.8 0 25.6 4.266667 38.4 4.266667z m-213.333333 0c72.533333 0 128-55.466667 128-128s-55.466667-128-128-128-128 55.466667-128 128 55.466667 128 128 128z m281.6 93.866666c34.133333 29.86834 59.733333 72.535007 59.733333 119.466667v85.333333H1024v-85.333333c0-64-102.4-106.666667-187.733333-119.466667z m-281.6-8.533333c-85.333333 0-256 42.666667-256 128v85.333333h512v-85.333333c0-85.333333-170.666667-128-256-128z"  /></svg>