<svg version="1.1" id="Layer_1" xmlns="http://www.w3.org/2000/svg" xmlns:xlink="http://www.w3.org/1999/xlink" x="0px" y="0px"
	 width="100%" viewBox="0 0 1280 320" enable-background="new 0 0 1280 320" xml:space="preserve">
<path fill="#FEFEFE" opacity="1.000000" stroke="none" 
	d="
M948.000000,321.000000 
	C632.000000,321.000000 316.500000,321.000000 1.000000,321.000000 
	C1.000000,214.333328 1.000000,107.666664 1.000000,1.000000 
	C427.666656,1.000000 854.333313,1.000000 1281.000000,1.000000 
	C1281.000000,107.666664 1281.000000,214.333328 1281.000000,321.000000 
	C1170.166626,321.000000 1059.333374,321.000000 948.000000,321.000000 
M98.745529,193.355194 
	C98.159615,193.240646 97.573692,193.126099 96.373764,192.642227 
	C82.067764,187.233887 67.748100,181.861099 53.473228,176.371796 
	C51.704975,175.691833 50.174931,174.392410 47.757931,172.900772 
	C65.709915,165.928955 82.356308,159.464172 99.770576,153.032196 
	C103.177406,151.758728 106.667824,150.662918 109.947784,149.119766 
	C111.170433,148.544540 112.683487,146.949783 112.721985,145.775909 
	C112.894798,140.506699 112.584618,135.221649 112.634331,129.240402 
	C112.573677,128.522079 112.513023,127.803749 112.757370,126.269814 
	C112.757370,124.079956 112.757370,121.890106 112.757370,118.743202 
	C104.829987,122.147110 97.916939,125.115479 90.438690,128.127136 
	C89.953224,128.397888 89.467766,128.668655 88.212593,128.923706 
	C81.861694,131.415146 75.476761,133.823807 69.167747,136.417145 
	C59.348576,140.453339 49.580997,144.615005 40.022636,148.880997 
	C40.022636,148.880997 39.813541,148.695206 39.094463,148.713028 
	C37.586002,149.392609 36.077541,150.072189 34.251026,150.734467 
	C34.251026,150.734467 33.993382,150.921768 33.388611,150.931610 
	C33.091515,151.189423 32.794422,151.447220 32.213669,151.658798 
	C32.213669,151.658798 31.981379,151.828033 31.309067,151.787369 
	C30.742220,152.111313 30.175373,152.435257 28.894638,152.870392 
	C23.939341,154.812134 18.888351,156.551559 14.088549,158.822021 
	C12.695102,159.481140 11.224237,161.623505 11.153713,163.149017 
	C10.838668,169.963821 10.879337,176.806488 11.128042,183.626801 
	C11.181009,185.079361 12.306879,187.299469 13.499973,187.784409 
	C36.464695,197.118149 59.513214,206.245682 83.036781,215.909103 
	C84.348145,216.329697 85.659500,216.750290 87.223801,217.358856 
	C87.223801,217.358856 87.536705,217.396240 88.035202,217.913605 
	C90.313660,218.729935 92.592117,219.546265 95.136200,220.588211 
	C95.136200,220.588211 95.479156,220.650085 95.878510,220.998932 
	C96.223892,221.046509 96.569275,221.094086 96.961349,221.001831 
	C96.961349,221.001831 96.885887,221.128601 97.282654,221.695374 
	C101.090958,223.560974 104.922455,225.381058 108.699875,227.307220 
	C111.496635,228.733322 112.859207,227.680679 112.862389,224.835556 
	C112.867882,219.908997 112.639946,214.982162 112.648949,209.289749 
	C112.600212,208.516586 112.551476,207.743423 112.805992,206.266510 
	C112.703781,205.523361 112.601562,204.780212 112.652382,203.259705 
	C112.615997,202.208252 112.579613,201.156799 112.722359,199.432083 
	C108.184731,197.558792 103.647102,195.685501 99.026413,193.992203 
	C99.026413,193.992203 99.133362,193.825134 98.745529,193.355194 
M1056.088867,254.744431 
	C1056.764526,254.728958 1057.440063,254.713486 1058.969849,254.677902 
	C1067.962769,254.706757 1076.955688,254.735596 1086.378540,255.393326 
	C1091.964966,253.921997 1097.874268,253.163635 1103.062866,250.813995 
	C1111.049683,247.197205 1117.784668,241.555450 1123.768799,235.037476 
	C1124.903442,233.801819 1127.222534,233.653809 1128.999268,233.858612 
	C1129.296875,236.188873 1129.594360,238.519119 1129.891968,240.849380 
	C1130.585693,240.869629 1131.279419,240.889862 1131.973145,240.910110 
	C1132.487549,239.048401 1133.660034,237.035812 1133.280029,235.379181 
	C1133.035889,234.314011 1130.508789,233.772385 1129.000977,232.123123 
	C1129.353638,229.565338 1129.015869,226.621613 1130.189209,224.522675 
	C1133.600220,218.421585 1135.847046,212.066299 1137.091675,205.198715 
	C1137.554565,202.644958 1138.879883,199.766495 1140.746582,198.056427 
	C1143.853394,195.210327 1143.652222,193.614059 1140.002441,191.062683 
	C1140.001587,154.375229 1140.000732,117.687767 1140.517456,80.575455 
	C1140.870728,76.838089 1139.063110,77.637596 1136.089966,78.984550 
	C1126.720581,78.931267 1117.351196,78.877983 1107.808350,78.539619 
	C1107.479492,78.333374 1107.218140,78.415222 1106.491577,78.940041 
	C1106.307129,78.954803 1106.122803,78.969559 1105.154541,79.179070 
	C1104.769653,80.846466 1104.061401,82.511803 1104.050903,84.181572 
	C1103.961548,98.241417 1104.008301,112.302078 1103.989258,126.362465 
	C1103.986938,128.077957 1103.838379,129.793243 1103.740356,131.874146 
	C1101.448486,130.920792 1099.869629,129.987717 1098.169434,129.628433 
	C1096.151733,129.201996 1094.029663,129.269379 1091.279053,129.151459 
	C1090.855713,129.008743 1090.432251,128.866028 1089.897827,128.019684 
	C1088.765259,126.157959 1087.632690,124.296227 1086.343140,122.176399 
	C1086.879395,121.542038 1087.676514,120.599060 1088.667725,119.426521 
	C1074.594238,117.842476 1058.675049,118.751190 1056.205811,121.589783 
	C1059.140869,121.869232 1061.778442,122.120338 1064.416016,122.371452 
	C1064.437866,122.995384 1064.459717,123.619324 1064.481567,124.243263 
	C1061.836670,124.331169 1059.188721,124.367592 1056.548096,124.526726 
	C1055.019531,124.618843 1052.792358,124.339729 1052.099976,125.204674 
	C1048.465820,129.744034 1043.726562,130.057938 1039.660156,129.627533 
	C1037.279785,132.182831 1035.406128,134.308289 1033.411377,136.313431 
	C1028.113037,141.639954 1020.532532,144.117401 1016.365845,151.105881 
	C1013.911133,155.222961 1009.640320,158.227814 1011.720764,163.876938 
	C1011.768860,164.007523 1011.064453,164.415268 1010.822266,164.606064 
	C1007.105591,159.801010 1003.850159,154.756989 999.754883,150.525879 
	C995.404236,146.030945 990.215698,142.354370 985.478943,138.221985 
	C983.686401,136.658142 982.425720,134.229340 980.409424,133.231308 
	C976.448242,131.270493 972.168701,129.903381 967.928833,128.587036 
	C966.770264,128.227325 965.284424,128.922043 963.275757,129.159943 
	C962.853638,129.015015 962.431519,128.870071 961.912903,128.062912 
	C960.569275,126.877991 959.225647,125.693077 957.167725,123.878212 
	C957.890564,122.951920 959.136475,121.355270 960.463074,119.655197 
	C950.050842,119.655197 939.754517,119.655197 929.458130,119.655197 
	C929.451904,120.127617 929.445679,120.600037 929.439453,121.072456 
	C935.556763,122.666290 941.770447,122.276375 948.047974,121.387497 
	C949.194641,121.225143 950.448303,121.817871 951.652527,122.062050 
	C950.715149,123.033287 949.784851,124.835648 948.839294,124.843727 
	C941.543579,124.906036 934.244995,124.620865 926.947266,124.443436 
	C925.432068,124.896751 923.998047,127.375053 922.106201,127.796188 
	C913.070679,129.807510 906.182739,135.507874 898.956970,140.601166 
	C897.831665,141.394363 897.716614,143.620758 897.071289,145.075836 
	C897.071289,145.075836 897.184204,145.130829 896.435608,145.103653 
	C894.401123,145.248108 892.366577,145.392563 890.332092,145.537018 
	C890.723816,145.870178 891.115601,146.203339 891.507385,146.536499 
	C890.078979,148.946991 889.019409,151.702652 887.149841,153.700272 
	C882.413330,158.761536 881.647888,165.235413 880.145386,171.471329 
	C880.043579,171.894073 880.783936,172.519745 881.183044,173.724594 
	C881.039673,174.147903 880.896301,174.571228 880.058289,175.162186 
	C879.368591,176.908310 878.796143,178.713745 877.951843,180.381607 
	C877.291565,181.685898 876.294128,182.819504 875.027893,184.626266 
	C874.012573,181.332138 873.382507,179.287964 872.752380,177.243774 
	C872.187683,177.365082 871.622986,177.486404 871.058289,177.607727 
	C871.058289,181.825958 870.803284,186.070801 871.238342,190.243683 
	C871.346558,191.281479 873.685669,192.086670 875.000000,193.000000 
	C875.000000,193.000000 875.000366,193.001221 875.000244,193.834686 
	C875.957520,197.661285 876.747620,201.539368 877.907349,205.303574 
	C880.217834,212.802628 885.284668,219.485550 884.228516,228.022873 
	C884.084778,229.185028 886.068481,230.822479 887.347717,231.909653 
	C891.575317,235.502441 895.990540,238.874527 900.214417,242.471436 
	C902.479736,244.400589 904.374756,246.770386 906.673340,248.652573 
	C908.411133,250.075607 910.523804,251.040909 912.839600,252.432190 
	C915.833252,250.942230 915.679810,251.221008 920.324097,253.777328 
	C924.574707,256.116882 929.295044,256.591522 934.863220,254.807190 
	C936.240356,254.958954 937.617493,255.110703 939.181763,255.942413 
	C941.123657,255.742661 943.065491,255.542892 945.870789,255.132828 
	C948.240906,255.072250 950.611084,255.011673 953.484802,255.535736 
	C961.531311,256.003204 968.768005,253.537308 975.983826,250.148422 
	C981.380920,247.613754 986.653320,245.172638 990.044556,240.123840 
	C991.566589,237.857895 992.378479,235.114868 993.637085,232.597260 
	C993.637085,232.597260 993.551208,232.506744 994.380920,232.811752 
	C996.172729,232.178345 998.191101,231.873566 999.701538,230.832077 
	C1001.797791,229.386658 1003.266235,226.953720 1005.443237,225.718918 
	C1009.693237,223.308243 1012.093567,225.042938 1012.491272,230.622360 
	C1010.838745,230.095459 1009.281677,229.598984 1006.235718,228.627777 
	C1007.333313,232.217972 1008.050232,234.563034 1008.888855,237.306259 
	C1012.078003,234.733994 1014.342590,232.907379 1016.958740,230.797272 
	C1021.016357,235.363647 1024.250122,240.467163 1028.794922,243.762863 
	C1035.079834,248.320374 1042.278809,251.663239 1049.277466,255.141739 
	C1050.361328,255.680435 1052.463745,254.169891 1054.756348,253.681213 
	C1055.169556,253.837677 1055.582764,253.994141 1056.088867,254.744431 
M1249.496582,243.209717 
	C1253.607544,244.877716 1254.148926,242.619400 1254.118164,238.811066 
	C1258.414795,233.874939 1262.711426,228.938812 1267.592163,223.944519 
	C1267.734375,223.298325 1267.876709,222.652115 1268.002930,221.283585 
	C1265.993286,219.545898 1263.983521,217.808212 1261.976562,215.337601 
	C1261.645020,214.728027 1261.313477,214.118439 1260.982178,213.508911 
	C1260.594238,213.928665 1260.206421,214.348419 1259.134399,214.582214 
	C1257.428345,213.386169 1255.722168,212.190109 1254.511719,210.594330 
	C1252.803101,203.497192 1249.883545,202.785019 1241.967041,207.413742 
	C1242.376099,208.464493 1242.775024,209.489059 1243.072510,211.154770 
	C1239.386963,216.608551 1234.684448,220.632523 1227.895874,221.268936 
	C1227.585449,220.996124 1227.274902,220.723312 1226.964478,220.450485 
	C1226.680664,221.068298 1226.396729,221.686127 1225.396484,222.747803 
	C1219.901489,222.576248 1214.406372,222.404694 1208.867798,221.496445 
	C1207.857056,221.513855 1206.846191,221.531265 1205.088989,221.463776 
	C1201.077393,218.404160 1197.065918,215.344528 1193.804810,212.152863 
	C1194.330811,211.837463 1194.856934,211.522064 1195.382935,211.206680 
	C1192.996826,207.802856 1190.610718,204.399033 1187.893555,200.215561 
	C1187.511230,197.830902 1187.128906,195.446243 1186.655029,192.490173 
	C1189.294678,192.490173 1191.250366,192.490067 1193.206177,192.490189 
	C1216.521118,192.491562 1239.836182,192.446442 1263.150757,192.538651 
	C1267.194214,192.554642 1269.393066,191.535019 1269.174194,186.901535 
	C1268.860352,180.260635 1269.539917,173.551224 1268.935547,166.949738 
	C1267.229736,148.313293 1259.599243,133.173965 1241.256958,125.935883 
	C1234.561279,123.293701 1227.108032,122.570847 1219.901123,120.314583 
	C1218.933594,120.513008 1217.965942,120.711441 1216.100342,121.096832 
	C1191.294800,121.121384 1167.885254,131.247482 1157.234253,162.081635 
	C1157.191162,162.732651 1157.148071,163.383652 1157.137939,164.859360 
	C1152.889771,187.597580 1153.870605,209.470779 1166.944824,229.541153 
	C1166.890503,232.479553 1167.910522,233.361801 1171.532471,233.235336 
	C1172.021851,233.816406 1172.511108,234.397491 1172.942505,235.624619 
	C1172.879272,237.129654 1172.816162,238.634674 1172.752930,240.139709 
	C1173.881958,239.299469 1175.010986,238.459229 1176.712036,237.818008 
	C1177.140869,238.236084 1177.569580,238.654160 1177.994263,239.845627 
	C1178.149414,241.121719 1178.304443,242.397827 1178.508789,244.078369 
	C1180.245605,243.078308 1181.322632,242.458130 1183.081909,241.952652 
	C1204.838257,252.233902 1226.735718,252.793854 1249.496582,243.209717 
M691.264465,192.756393 
	C693.973206,190.823975 696.723938,188.947342 699.383423,186.949356 
	C710.582031,178.536285 721.697205,170.060333 729.077148,157.729950 
	C744.323120,132.257217 733.767029,100.125732 706.489929,90.486824 
	C689.141663,84.356445 671.423828,84.604660 654.080139,90.750351 
	C641.186768,95.319061 631.101379,103.753304 623.338013,115.326157 
	C627.546875,120.015137 631.554077,124.453751 635.532654,128.917862 
	C641.710388,135.849487 641.670166,135.829956 647.471252,128.930496 
	C657.106201,117.471207 669.469543,112.582977 684.284546,114.172310 
	C701.889404,116.060936 709.668213,134.050751 699.112244,149.337021 
	C695.505859,154.559509 690.481079,159.023438 685.437317,162.984634 
	C676.020386,170.380417 666.394470,177.584518 656.358459,184.103073 
	C631.194702,200.447388 622.013672,223.537155 626.434448,252.716125 
	C662.091309,252.716125 697.969543,252.716125 733.919312,252.716125 
	C733.919312,243.667038 733.919312,234.918777 733.919312,225.812195 
	C709.269287,225.812195 684.850159,225.812195 660.142334,225.812195 
	C659.890015,219.916977 661.960938,215.186447 666.063110,211.855698 
	C674.056946,205.365112 682.440308,199.354279 691.264465,192.756393 
M860.812622,160.287643 
	C863.213745,158.570282 865.614807,156.852905 868.046814,155.113434 
	C863.522278,144.013794 856.385254,136.009628 845.611755,131.721756 
	C829.386902,125.264160 812.783081,124.954384 796.196106,130.031952 
	C781.988159,134.381287 771.129028,143.284424 764.752258,156.743088 
	C754.168091,179.081314 754.233582,201.888000 764.211060,224.353485 
	C769.683472,236.675415 779.321777,245.346130 791.909546,250.424652 
	C806.792419,256.429199 822.161072,257.049438 837.453796,252.802887 
	C854.335876,248.115005 864.544250,236.294769 870.119568,219.742645 
	C863.866150,216.312363 857.911926,213.028412 851.940552,209.775818 
	C846.401184,206.758545 846.393127,206.773285 843.836243,212.500992 
	C838.766052,223.858719 829.051758,229.614990 816.174500,228.892090 
	C804.155640,228.217377 795.648621,221.681702 791.918579,209.994507 
	C788.340576,198.783432 788.323364,187.357956 790.794067,175.968109 
	C793.728882,162.438721 801.181274,155.224411 813.497864,153.406494 
	C826.951050,151.420837 836.042480,155.786026 843.004211,167.935043 
	C844.618408,170.751968 846.107849,170.894852 848.471069,169.163803 
	C852.365112,166.311371 856.318298,163.539597 860.812622,160.287643 
M571.738708,247.306366 
	C586.242188,208.026642 600.745667,168.746918 615.306091,129.312988 
	C604.285583,129.312988 593.841614,129.312988 583.471741,129.312988 
	C579.203247,141.524170 575.033936,153.460663 570.858154,165.394913 
	C565.145325,181.721664 559.448486,198.054123 553.665710,214.356079 
	C553.274414,215.459076 552.219482,216.326645 551.473145,217.303696 
	C550.661865,216.397568 549.694336,215.584366 549.084473,214.558502 
	C548.502930,213.580170 548.304016,212.376755 547.920166,211.278137 
	C538.759766,185.061584 529.632874,158.833115 520.339722,132.663712 
	C519.821899,131.205627 517.956055,129.237335 516.667542,129.199158 
	C506.862488,128.908813 497.045013,129.040146 486.584229,129.040146 
	C501.966522,170.599777 517.181213,211.706482 532.401733,252.829102 
	C544.949158,252.829102 557.249634,252.829102 569.630188,252.829102 
	C570.258606,251.139465 570.836182,249.586670 571.738708,247.306366 
M168.972977,233.565201 
	C184.969833,182.238480 200.966690,130.911743 217.032150,79.364899 
	C206.724579,79.364899 197.087799,79.364899 187.302322,79.364899 
	C166.911087,144.975006 146.560364,210.454834 126.098587,276.291901 
	C136.259018,276.291901 145.859772,276.291901 155.651230,276.291901 
	C160.063278,262.233368 164.438477,248.292191 168.972977,233.565201 
M373.538940,79.186752 
	C370.123352,79.186752 366.707733,79.186752 363.358612,79.186752 
	C363.231567,80.466431 363.139374,80.961708 363.139282,81.457001 
	C363.132660,127.427711 363.042114,173.398834 363.251434,219.368591 
	C363.276794,224.932236 364.154236,230.753601 365.961853,235.998886 
	C371.573822,252.283615 397.627960,261.662750 412.296173,253.040054 
	C412.989471,252.632477 413.804596,251.537613 413.729523,250.854462 
	C412.900848,243.315384 411.906982,235.794479 410.922516,227.988586 
	C408.949310,228.315826 407.667023,228.550598 406.377930,228.738602 
	C399.355286,229.762772 395.494629,226.963730 394.514374,219.991928 
	C394.238007,218.026443 394.279419,216.007629 394.278870,214.013260 
	C394.266846,171.040634 394.269592,128.068008 394.269440,85.095375 
	C394.269440,83.193909 394.269409,81.292442 394.269409,79.186760 
	C387.152679,79.186760 380.840759,79.186760 373.538940,79.186752 
M255.656479,219.114044 
	C281.263580,208.866104 306.848297,198.561432 332.509277,188.450195 
	C335.355347,187.328766 336.215546,185.915924 336.111389,183.005753 
	C335.897003,177.015732 335.720306,170.988678 336.159363,165.023315 
	C336.462280,160.907104 334.836853,159.310364 331.229858,157.885818 
	C300.288513,145.666077 269.429749,133.237137 238.540146,120.886139 
	C237.399765,120.430161 236.195862,120.133064 234.629852,119.638123 
	C234.629852,128.014297 234.824173,135.822464 234.539780,143.613159 
	C234.415909,147.006607 235.493057,148.541351 238.677765,149.716537 
	C257.540985,156.677124 276.321320,163.862518 295.119995,170.997452 
	C296.401337,171.483765 297.604980,172.174881 300.243622,173.443100 
	C297.410797,174.732254 295.911194,175.518677 294.339264,176.114197 
	C275.833435,183.125168 257.306091,190.079575 238.822556,197.148666 
	C237.287415,197.735779 234.860764,199.006165 234.825119,200.028030 
	C234.510025,209.059418 234.642227,218.106400 234.642227,227.590439 
	C241.993439,224.628326 248.468307,222.019318 255.656479,219.114044 
M466.472046,158.500320 
	C466.472046,148.744400 466.472046,138.988495 466.472046,129.363159 
	C455.701843,129.363159 445.631042,129.363159 435.593811,129.363159 
	C435.593811,170.720230 435.593811,211.743607 435.593811,252.679581 
	C446.018097,252.679581 456.076416,252.679581 466.471985,252.679581 
	C466.471985,221.397842 466.471985,190.449081 466.472046,158.500320 
M468.104889,104.352554 
	C474.085632,89.211243 464.666992,76.623245 448.293304,77.874397 
	C439.242676,78.565964 432.407288,85.442726 431.907318,94.359550 
	C431.352753,104.250771 436.961090,112.232376 446.113129,113.748352 
	C454.936035,115.209801 462.690399,113.228531 468.104889,104.352554 
M1113.611816,73.000420 
	C1111.121826,73.136803 1108.631836,73.273186 1106.141846,73.409561 
	C1106.204712,73.861115 1106.267456,74.312668 1106.330322,74.764221 
	C1116.326294,74.764221 1126.322388,74.764221 1136.318359,74.764221 
	C1136.313354,74.176262 1136.308350,73.588295 1136.303223,73.000336 
	C1129.062378,73.000336 1121.821411,73.000336 1113.611816,73.000420 
M1125.699463,67.000626 
	C1123.995728,67.175819 1122.291870,67.351013 1120.588135,67.526215 
	C1120.650269,67.810143 1120.712524,68.094078 1120.774658,68.378006 
	C1125.624390,68.378006 1130.473999,68.378006 1135.323730,68.378006 
	C1135.319824,67.918877 1135.315918,67.459740 1135.312012,67.000610 
	C1132.412476,67.000610 1129.512817,67.000610 1125.699463,67.000626 
M902.683472,134.256729 
	C900.996582,133.692230 899.309631,133.127716 897.622742,132.563217 
	C897.595459,133.635483 897.568176,134.707764 897.540894,135.780014 
	C899.158508,135.499573 900.776062,135.219131 902.683472,134.256729 
M884.047302,149.155594 
	C884.855774,149.583084 885.664185,150.010574 886.472656,150.438065 
	C886.903809,149.241104 887.616150,148.049301 887.638245,146.844818 
	C887.648132,146.306366 886.272461,145.742447 885.525635,145.190109 
	C885.020630,146.252289 884.515625,147.314468 884.047302,149.155594 
M1111.570801,67.000870 
	C1110.233643,67.178795 1108.896362,67.356720 1107.559204,67.534637 
	C1107.630005,67.849342 1107.700928,68.164055 1107.771851,68.478760 
	C1110.625732,68.478760 1113.479614,68.478760 1116.333496,68.478760 
	C1116.348633,68.113693 1116.363770,67.748634 1116.378784,67.383568 
	C1115.059692,67.255989 1113.740479,67.128418 1111.570801,67.000870 
M990.062317,133.206985 
	C990.430725,134.075745 990.799133,134.944489 991.167542,135.813232 
	C991.684753,135.541550 992.201904,135.269867 992.719116,134.998169 
	C992.064819,134.354416 991.410522,133.710678 990.062317,133.206985 
M1014.729675,238.962845 
	C1014.256104,239.283081 1013.782532,239.603317 1013.308960,239.923538 
	C1013.421570,240.191833 1013.534241,240.460129 1013.646851,240.728409 
	C1015.317322,240.317688 1016.987793,239.906967 1018.658264,239.496246 
	C1018.574585,239.093460 1018.490967,238.690674 1018.407288,238.287888 
	C1017.401428,238.449707 1016.395569,238.611511 1014.729675,238.962845 
M976.421631,256.362122 
	C975.235046,255.905518 974.048523,255.448898 972.861938,254.992294 
	C972.744202,255.526855 972.626404,256.061401 972.508667,256.595978 
	C973.633667,256.666718 974.758728,256.737457 976.421631,256.362122 
M886.978821,240.754700 
	C887.821960,240.601120 888.665161,240.447540 889.508301,240.293976 
	C889.333496,239.831329 889.158691,239.368683 888.983887,238.906036 
	C888.158875,239.375137 887.333923,239.844238 886.978821,240.754700 
M1025.677368,132.448914 
	C1025.794800,133.214661 1025.912231,133.980392 1026.029785,134.746124 
	C1026.469116,134.662445 1026.908325,134.578781 1027.347656,134.495102 
	C1027.006348,133.780426 1026.664917,133.065750 1025.677368,132.448914 
M872.724121,207.118317 
	C872.531982,206.575027 872.339783,206.031738 872.147644,205.488449 
	C871.869080,205.615753 871.590454,205.743057 871.311890,205.870346 
	C871.637695,206.429596 871.963501,206.988846 872.724121,207.118317 
M867.276062,194.881622 
	C867.468079,195.424927 867.660095,195.968231 867.852173,196.511536 
	C868.130737,196.384216 868.409241,196.256897 868.687866,196.129547 
	C868.362183,195.570312 868.036560,195.011078 867.276062,194.881622 
M989.458496,251.287949 
	C990.036621,251.399902 990.614746,251.511841 991.192871,251.623779 
	C991.197998,251.213470 991.203125,250.803162 991.208252,250.392838 
	C990.627441,250.490616 990.046570,250.588379 989.458496,251.287949 
M1136.731812,222.903336 
	C1136.232178,222.958481 1135.732666,223.013641 1135.233032,223.068802 
	C1135.347534,223.516495 1135.462036,223.964172 1135.576660,224.411819 
	C1136.003418,224.108582 1136.430298,223.805344 1136.731812,222.903336 
M983.608215,129.798111 
	C983.214172,129.793869 982.820190,129.789627 982.426147,129.785385 
	C982.424561,129.948883 982.411987,130.254471 982.422974,130.255325 
	C982.815063,130.285568 983.209290,130.287338 983.608215,129.798111 
M977.392029,130.202087 
	C977.786011,130.206299 978.180054,130.210510 978.573975,130.214706 
	C978.575500,130.051224 978.587952,129.745651 978.577026,129.744797 
	C978.184998,129.714584 977.790710,129.712860 977.392029,130.202087 
M999.296082,239.432510 
	C999.010803,239.704788 998.725464,239.977066 998.440125,240.249374 
	C998.553040,240.367477 998.757874,240.594391 998.765564,240.587875 
	C999.066467,240.333740 999.349487,240.058350 999.296082,239.432510 
M850.392090,206.201630 
	C850.786255,206.205917 851.180420,206.210205 851.574585,206.214493 
	C851.576111,206.050919 851.588562,205.745178 851.577515,205.744324 
	C851.185242,205.713989 850.790771,205.712173 850.392090,206.201630 
M1181.411133,123.482849 
	C1181.411133,123.482849 1181.522705,123.416245 1181.411133,123.482849 
M1185.589722,124.517242 
	C1185.589722,124.517242 1185.476929,124.585175 1185.589722,124.517242 
M1167.482666,137.590912 
	C1167.482666,137.590912 1167.413818,137.476761 1167.482666,137.590912 
z"/>
<path fill="#F74D39" opacity="1.000000" stroke="none" 
	d="
M1090.008911,128.723312 
	C1090.432251,128.866028 1090.855713,129.008743 1091.861450,129.383759 
	C1096.648804,131.405518 1100.853882,133.195007 1105.780640,135.291641 
	C1105.780640,125.324036 1105.760010,116.086929 1105.786377,106.849953 
	C1105.812744,97.561340 1105.885864,88.272858 1105.938477,78.984322 
	C1106.122803,78.969559 1106.307129,78.954803 1106.994019,78.954079 
	C1107.658203,78.920311 1107.820068,78.872505 1107.981812,78.824699 
	C1117.351196,78.877983 1126.720581,78.931267 1136.663086,79.217239 
	C1137.478271,79.972054 1137.720215,80.494194 1137.869629,81.476517 
	C1137.766113,105.014809 1137.724854,128.092957 1137.755615,151.171005 
	C1137.773682,164.778244 1137.906250,178.385361 1137.886719,192.372955 
	C1137.184570,195.483170 1136.512695,198.199646 1135.992798,200.944855 
	C1132.139160,221.292374 1121.965454,237.195068 1103.091309,247.209183 
	C1101.424072,247.442062 1100.001099,247.481216 1098.932739,248.116653 
	C1091.623169,252.464050 1083.637817,254.413483 1075.284546,253.922363 
	C1066.459473,253.403519 1057.681396,252.086090 1048.946777,251.105927 
	C1049.010864,251.094330 1048.893433,251.150742 1048.882812,250.787292 
	C1043.556274,247.638474 1038.240356,244.853088 1032.966064,242.043030 
	C1033.007812,242.018356 1032.936768,242.085510 1032.921387,241.734314 
	C1032.173950,241.022217 1031.441895,240.661316 1030.792480,240.146576 
	C1030.875122,239.992722 1030.696777,240.298492 1030.771240,239.936981 
	C1027.182495,236.087280 1023.519104,232.599106 1019.909729,229.054993 
	C1019.963684,228.999069 1019.882202,229.131348 1019.922180,228.756958 
	C1019.326233,227.116806 1018.926697,225.637756 1018.011780,224.623688 
	C1014.753052,221.011887 1011.319031,217.558273 1007.854736,213.820557 
	C1007.568542,213.318649 1007.316589,213.119766 1006.850342,212.702087 
	C1004.645142,210.425369 1002.591980,208.446259 1000.593140,206.437271 
	C1000.647461,206.407394 1000.525940,206.382706 1000.574463,206.088287 
	C1000.289612,205.657669 999.956238,205.521454 999.802734,205.333511 
	C999.982666,205.281784 999.615601,205.353897 999.636414,205.060822 
	C999.333801,204.601761 999.010376,204.435745 998.767517,204.306519 
	C998.848083,204.343277 998.675110,204.303894 998.756042,203.939606 
	C996.754822,201.504944 994.672607,199.434555 992.588501,197.243683 
	C992.586487,197.123169 992.613892,197.358307 992.626343,197.066376 
	C992.312195,196.622330 991.985474,196.470215 991.686401,196.180939 
	C991.713989,196.043762 991.700378,196.323257 991.671814,196.017487 
	C991.299438,195.527740 990.955688,195.343765 990.414307,195.031387 
	C990.216736,194.902985 989.988403,194.490646 989.942566,194.387115 
	C989.896729,194.283585 989.534424,194.023804 989.330444,193.849579 
	C989.054199,193.511673 988.982056,193.348007 988.937439,192.808167 
	C986.490295,189.785248 984.015564,187.138504 981.535034,184.444244 
	C981.529175,184.396744 981.433594,184.390976 981.589661,184.042526 
	C980.122070,182.128189 978.498413,180.562302 976.786133,178.924759 
	C976.697449,178.853119 976.720947,178.626389 976.713013,178.296249 
	C976.356018,177.758423 976.007019,177.550751 975.656006,177.238876 
	C975.653931,177.134689 975.603088,177.336823 975.613037,177.047729 
	C975.288208,176.654785 974.953491,176.550919 974.602539,176.407990 
	C974.586426,176.368896 974.501892,176.372086 974.636108,176.020386 
	C972.695190,173.604782 970.620056,171.540894 968.582642,169.428696 
	C968.620300,169.380386 968.498962,169.397873 968.540527,169.108215 
	C968.251892,168.705154 967.921692,168.591766 967.582703,168.435791 
	C967.573853,168.393188 967.489868,168.416031 967.608887,168.049881 
	C966.793335,167.141190 965.858643,166.598648 964.959473,166.030731 
	C964.994873,166.005341 964.949585,166.079819 964.935547,165.709564 
	C963.812195,164.774994 962.702942,164.210693 961.574707,163.593475 
	C961.555664,163.540558 961.444458,163.524078 961.497559,163.122223 
	C960.173340,162.241104 958.795898,161.761841 957.301636,161.311859 
	C957.184814,161.341125 957.013245,161.171906 956.864441,160.828705 
	C953.896973,157.616150 950.616394,157.292526 946.578369,158.771240 
	C944.082642,158.781830 942.025574,158.746765 939.679321,158.483185 
	C935.168762,158.247498 930.938965,158.216248 928.056274,162.098923 
	C928.035645,162.044220 928.126953,162.117325 927.752319,162.074921 
	C926.418701,162.852997 925.459778,163.673492 924.463562,164.472076 
	C924.426331,164.450180 924.388245,164.527695 924.099854,164.460678 
	C923.669678,164.720230 923.527893,165.046783 923.316711,165.357529 
	C923.247253,165.341721 923.346436,165.444000 922.981201,165.329407 
	C919.689026,166.248596 916.969055,167.456009 917.337646,171.210861 
	C917.214417,171.063339 917.424500,171.385300 917.057800,171.368546 
	C915.479980,172.865356 913.819092,174.199814 913.133057,175.922501 
	C909.537170,184.951447 908.130127,193.850693 912.136719,203.499756 
	C919.629333,221.544281 935.146545,225.422714 951.462708,223.831238 
	C952.309570,223.748642 953.037415,222.445892 953.915527,221.761597 
	C954.010315,221.811996 953.804321,221.751480 954.205688,221.839157 
	C962.495361,221.424042 966.773254,215.420715 971.776123,210.560638 
	C972.059204,210.285599 971.664429,209.312790 971.637451,208.677216 
	C971.689758,208.689682 971.640381,208.594055 972.012451,208.682114 
	C972.887390,207.807877 973.390320,206.845581 973.932617,205.944351 
	C973.971985,206.005417 973.871460,205.900192 974.234009,205.902802 
	C975.419250,204.637222 976.241943,203.369034 977.035278,202.065781 
	C977.005981,202.030716 977.093506,202.057129 977.467651,202.038101 
	C978.353577,201.194870 978.865295,200.370667 979.433105,199.519928 
	C979.489075,199.493393 979.541504,199.381119 979.964050,199.573883 
	C981.302429,199.832413 982.218323,199.898163 983.297363,200.252197 
	C989.755676,207.431137 996.050781,214.321777 1002.455444,221.332336 
	C999.283081,225.313522 996.417114,228.910126 993.551208,232.506744 
	C993.551208,232.506744 993.637085,232.597260 993.292480,232.736694 
	C989.674133,235.894318 986.542664,239.086884 983.098755,241.896545 
	C974.311462,249.065552 963.837097,252.480331 952.981201,254.951080 
	C950.611084,255.011673 948.240906,255.072250 945.018066,255.139297 
	C942.441772,255.184662 940.718201,255.223557 938.994629,255.262451 
	C937.617493,255.110703 936.240356,254.958954 934.144165,254.636719 
	C919.176941,252.133331 906.896545,245.882309 897.008057,235.389893 
	C880.831726,218.225723 876.051819,197.850449 880.752930,174.994537 
	C880.896301,174.571228 881.039673,174.147903 881.392090,173.123566 
	C884.545776,162.112137 890.606873,153.474655 897.184204,145.130829 
	C897.184204,145.130829 897.071289,145.075836 897.432129,145.048538 
	C916.243103,127.943642 937.790527,123.070892 962.009399,128.725128 
	C962.431519,128.870071 962.853638,129.015015 963.858643,129.391998 
	C976.081177,133.890350 985.963074,140.574005 994.055481,150.097198 
	C1010.545166,169.502289 1027.291992,188.688690 1043.887573,208.004089 
	C1049.514771,214.553619 1055.709595,220.040985 1064.489746,222.108856 
	C1077.088623,225.076141 1091.068359,220.071991 1098.527100,209.526123 
	C1106.242310,198.617722 1106.426392,183.845764 1098.982788,172.925598 
	C1087.315796,155.809219 1063.026001,153.662079 1048.616943,168.597122 
	C1043.807983,173.581619 1039.349365,178.904160 1034.407349,184.433914 
	C1027.710571,176.720306 1021.324402,169.501923 1015.171448,162.089920 
	C1014.461609,161.234909 1014.440979,158.804352 1015.137817,157.951660 
	C1019.028870,153.189896 1022.910278,148.335434 1027.398193,144.161148 
	C1045.346313,127.467293 1066.537476,123.324844 1090.008911,128.723312 
z"/>
<path fill="#030303" opacity="1.000000" stroke="none" 
	d="
M690.963379,192.950577 
	C682.440308,199.354279 674.056946,205.365112 666.063110,211.855698 
	C661.960938,215.186447 659.890015,219.916977 660.142334,225.812195 
	C684.850159,225.812195 709.269287,225.812195 733.919312,225.812195 
	C733.919312,234.918777 733.919312,243.667038 733.919312,252.716125 
	C697.969543,252.716125 662.091309,252.716125 626.434448,252.716125 
	C622.013672,223.537155 631.194702,200.447388 656.358459,184.103073 
	C666.394470,177.584518 676.020386,170.380417 685.437317,162.984634 
	C690.481079,159.023438 695.505859,154.559509 699.112244,149.337021 
	C709.668213,134.050751 701.889404,116.060936 684.284546,114.172310 
	C669.469543,112.582977 657.106201,117.471207 647.471252,128.930496 
	C641.670166,135.829956 641.710388,135.849487 635.532654,128.917862 
	C631.554077,124.453751 627.546875,120.015137 623.338013,115.326157 
	C631.101379,103.753304 641.186768,95.319061 654.080139,90.750351 
	C671.423828,84.604660 689.141663,84.356445 706.489929,90.486824 
	C733.767029,100.125732 744.323120,132.257217 729.077148,157.729950 
	C721.697205,170.060333 710.582031,178.536285 699.383423,186.949356 
	C696.723938,188.947342 693.973206,190.823975 690.963379,192.950577 
z"/>
<path fill="#040404" opacity="1.000000" stroke="none" 
	d="
M1193.054321,212.284912 
	C1197.065918,215.344528 1201.077393,218.404160 1205.730103,221.686188 
	C1207.217896,222.016769 1208.064697,222.124954 1208.911377,222.233154 
	C1214.406372,222.404694 1219.901489,222.576248 1226.086426,222.563293 
	C1227.184814,222.209976 1227.593506,222.041153 1228.002075,221.872345 
	C1234.684448,220.632523 1239.386963,216.608551 1243.423340,210.643982 
	C1245.139893,206.976898 1247.093872,206.569168 1249.825317,208.650726 
	C1251.085571,209.611176 1252.610962,210.223709 1254.016113,210.994049 
	C1255.722168,212.190109 1257.428345,213.386169 1259.624512,214.893829 
	C1260.734497,215.493790 1261.354126,215.782150 1261.973877,216.070526 
	C1263.983521,217.808212 1265.993286,219.545898 1267.773438,221.822372 
	C1267.365234,222.908340 1267.186768,223.455536 1267.008179,224.002701 
	C1262.711426,228.938812 1258.414795,233.874939 1253.615967,239.203094 
	C1251.670654,240.698898 1250.227783,241.802658 1248.784790,242.906433 
	C1226.735718,252.793854 1204.838257,252.233902 1182.553467,241.619080 
	C1180.682739,240.547745 1179.340576,239.809982 1177.998413,239.072205 
	C1177.569580,238.654160 1177.140869,238.236084 1176.292236,237.448822 
	C1174.915161,236.379288 1173.957764,235.678940 1173.000488,234.978577 
	C1172.511108,234.397491 1172.021851,233.816406 1171.168701,232.822327 
	C1169.797363,231.341141 1168.790039,230.272949 1167.782593,229.204758 
	C1153.870605,209.470779 1152.889771,187.597580 1157.348145,164.266327 
	C1157.639282,163.114227 1157.720337,162.555176 1157.801514,161.996140 
	C1167.885254,131.247482 1191.294800,121.121384 1216.916992,121.107498 
	C1218.489258,121.069580 1219.244873,121.020981 1220.000488,120.972382 
	C1227.108032,122.570847 1234.561279,123.293701 1241.256958,125.935883 
	C1259.599243,133.173965 1267.229736,148.313293 1268.935547,166.949738 
	C1269.539917,173.551224 1268.860352,180.260635 1269.174194,186.901535 
	C1269.393066,191.535019 1267.194214,192.554642 1263.150757,192.538651 
	C1239.836182,192.446442 1216.521118,192.491562 1193.206177,192.490189 
	C1191.250366,192.490067 1189.294678,192.490173 1186.655029,192.490173 
	C1187.128906,195.446243 1187.511230,197.830902 1188.020264,200.973114 
	C1189.782715,205.248734 1191.418457,208.766815 1193.054321,212.284912 
M1207.860840,146.069183 
	C1195.602051,149.709641 1187.835205,159.870987 1188.115845,171.917877 
	C1205.263428,171.917877 1222.411011,171.917877 1239.579834,171.917877 
	C1238.363281,153.002777 1230.223145,144.607986 1214.128052,145.325882 
	C1212.309448,145.406998 1210.502319,145.739670 1207.860840,146.069183 
z"/>
<path fill="#030303" opacity="1.000000" stroke="none" 
	d="
M860.529602,160.510742 
	C856.318298,163.539597 852.365112,166.311371 848.471069,169.163803 
	C846.107849,170.894852 844.618408,170.751968 843.004211,167.935043 
	C836.042480,155.786026 826.951050,151.420837 813.497864,153.406494 
	C801.181274,155.224411 793.728882,162.438721 790.794067,175.968109 
	C788.323364,187.357956 788.340576,198.783432 791.918579,209.994507 
	C795.648621,221.681702 804.155640,228.217377 816.174500,228.892090 
	C829.051758,229.614990 838.766052,223.858719 843.836243,212.500992 
	C846.393127,206.773285 846.401184,206.758545 851.940552,209.775818 
	C857.911926,213.028412 863.866150,216.312363 870.119568,219.742645 
	C864.544250,236.294769 854.335876,248.115005 837.453796,252.802887 
	C822.161072,257.049438 806.792419,256.429199 791.909546,250.424652 
	C779.321777,245.346130 769.683472,236.675415 764.211060,224.353485 
	C754.233582,201.888000 754.168091,179.081314 764.752258,156.743088 
	C771.129028,143.284424 781.988159,134.381287 796.196106,130.031952 
	C812.783081,124.954384 829.386902,125.264160 845.611755,131.721756 
	C856.385254,136.009628 863.522278,144.013794 868.046814,155.113434 
	C865.614807,156.852905 863.213745,158.570282 860.529602,160.510742 
z"/>
<path fill="#030303" opacity="1.000000" stroke="none" 
	d="
M571.576172,247.670135 
	C570.836182,249.586670 570.258606,251.139465 569.630188,252.829102 
	C557.249634,252.829102 544.949158,252.829102 532.401733,252.829102 
	C517.181213,211.706482 501.966522,170.599777 486.584229,129.040146 
	C497.045013,129.040146 506.862488,128.908813 516.667542,129.199158 
	C517.956055,129.237335 519.821899,131.205627 520.339722,132.663712 
	C529.632874,158.833115 538.759766,185.061584 547.920166,211.278137 
	C548.304016,212.376755 548.502930,213.580170 549.084473,214.558502 
	C549.694336,215.584366 550.661865,216.397568 551.473145,217.303696 
	C552.219482,216.326645 553.274414,215.459076 553.665710,214.356079 
	C559.448486,198.054123 565.145325,181.721664 570.858154,165.394913 
	C575.033936,153.460663 579.203247,141.524170 583.471741,129.312988 
	C593.841614,129.312988 604.285583,129.312988 615.306091,129.312988 
	C600.745667,168.746918 586.242188,208.026642 571.576172,247.670135 
z"/>
<path fill="#030303" opacity="1.000000" stroke="none" 
	d="
M168.893341,233.958115 
	C164.438477,248.292191 160.063278,262.233368 155.651230,276.291901 
	C145.859772,276.291901 136.259018,276.291901 126.098587,276.291901 
	C146.560364,210.454834 166.911087,144.975006 187.302322,79.364899 
	C197.087799,79.364899 206.724579,79.364899 217.032150,79.364899 
	C200.966690,130.911743 184.969833,182.238480 168.893341,233.958115 
z"/>
<path fill="#030303" opacity="1.000000" stroke="none" 
	d="
M374.033905,79.186752 
	C380.840759,79.186760 387.152679,79.186760 394.269409,79.186760 
	C394.269409,81.292442 394.269440,83.193909 394.269440,85.095375 
	C394.269592,128.068008 394.266846,171.040634 394.278870,214.013260 
	C394.279419,216.007629 394.238007,218.026443 394.514374,219.991928 
	C395.494629,226.963730 399.355286,229.762772 406.377930,228.738602 
	C407.667023,228.550598 408.949310,228.315826 410.922516,227.988586 
	C411.906982,235.794479 412.900848,243.315384 413.729523,250.854462 
	C413.804596,251.537613 412.989471,252.632477 412.296173,253.040054 
	C397.627960,261.662750 371.573822,252.283615 365.961853,235.998886 
	C364.154236,230.753601 363.276794,224.932236 363.251434,219.368591 
	C363.042114,173.398834 363.132660,127.427711 363.139282,81.457001 
	C363.139374,80.961708 363.231567,80.466431 363.358612,79.186752 
	C366.707733,79.186752 370.123352,79.186752 374.033905,79.186752 
z"/>
<path fill="#030303" opacity="1.000000" stroke="none" 
	d="
M255.299835,219.262177 
	C248.468307,222.019318 241.993439,224.628326 234.642227,227.590439 
	C234.642227,218.106400 234.510025,209.059418 234.825119,200.028030 
	C234.860764,199.006165 237.287415,197.735779 238.822556,197.148666 
	C257.306091,190.079575 275.833435,183.125168 294.339264,176.114197 
	C295.911194,175.518677 297.410797,174.732254 300.243622,173.443100 
	C297.604980,172.174881 296.401337,171.483765 295.119995,170.997452 
	C276.321320,163.862518 257.540985,156.677124 238.677765,149.716537 
	C235.493057,148.541351 234.415909,147.006607 234.539780,143.613159 
	C234.824173,135.822464 234.629852,128.014297 234.629852,119.638123 
	C236.195862,120.133064 237.399765,120.430161 238.540146,120.886139 
	C269.429749,133.237137 300.288513,145.666077 331.229858,157.885818 
	C334.836853,159.310364 336.462280,160.907104 336.159363,165.023315 
	C335.720306,170.988678 335.897003,177.015732 336.111389,183.005753 
	C336.215546,185.915924 335.355347,187.328766 332.509277,188.450195 
	C306.848297,198.561432 281.263580,208.866104 255.299835,219.262177 
z"/>
<path fill="#F74D3A" opacity="1.000000" stroke="none" 
	d="
M112.543228,200.105347 
	C112.579613,201.156799 112.615997,202.208252 112.402374,203.853851 
	C112.269165,205.288757 112.385956,206.129501 112.502747,206.970261 
	C112.551476,207.743423 112.600212,208.516586 112.380188,210.007080 
	C111.889175,213.998993 111.674019,217.274048 111.442978,220.547989 
	C111.108376,225.289444 109.840981,225.847473 105.541519,223.867325 
	C102.814339,222.611298 99.781601,222.018707 96.885887,221.128601 
	C96.885887,221.128601 96.961349,221.001831 96.776627,220.822250 
	C96.220993,220.645142 95.850075,220.647614 95.479156,220.650085 
	C95.479156,220.650085 95.136200,220.588211 94.855515,220.141342 
	C92.228790,218.928391 89.882751,218.162323 87.536705,217.396240 
	C87.536705,217.396240 87.223801,217.358856 86.908562,216.956055 
	C85.243706,216.174088 83.894081,215.794907 82.544456,215.415741 
	C59.513214,206.245682 36.464695,197.118149 13.499973,187.784409 
	C12.306879,187.299469 11.181009,185.079361 11.128042,183.626801 
	C10.879337,176.806488 10.838668,169.963821 11.153713,163.149017 
	C11.224237,161.623505 12.695102,159.481140 14.088549,158.822021 
	C18.888351,156.551559 23.939341,154.812134 29.602715,152.877411 
	C30.867655,152.532318 31.424519,152.180176 31.981380,151.828033 
	C31.981379,151.828033 32.213669,151.658798 32.664474,151.694122 
	C33.407978,151.460236 33.700680,151.190994 33.993382,150.921768 
	C33.993382,150.921768 34.251026,150.734467 34.801353,150.822433 
	C36.838963,150.171997 38.326252,149.433594 39.813538,148.695206 
	C39.813541,148.695206 40.022636,148.880997 40.298763,148.895966 
	C40.905285,148.903809 41.269493,148.986526 41.561230,148.876709 
	C55.718517,143.547104 69.895271,138.266907 83.990532,132.777573 
	C85.867966,132.046417 87.328629,130.245117 88.982300,128.939423 
	C89.467766,128.668655 89.953224,128.397888 90.941208,128.337936 
	C92.064590,128.460602 92.710243,128.453339 93.302521,128.271896 
	C99.593758,126.344482 105.607033,120.085800 112.452377,127.085419 
	C112.513023,127.803749 112.573677,128.522079 112.209938,129.761169 
	C111.539871,133.367416 111.126961,136.450500 111.082047,139.538910 
	C110.976288,146.809753 110.216248,147.790009 103.268623,150.068985 
	C101.695503,150.585007 100.416878,151.998840 99.002701,152.999405 
	C82.356308,159.464172 65.709915,165.928955 47.757931,172.900772 
	C50.174931,174.392410 51.704975,175.691833 53.473228,176.371796 
	C67.748100,181.861099 82.067764,187.233887 96.864113,193.082443 
	C97.947433,193.623474 98.540398,193.724304 99.133362,193.825134 
	C99.133362,193.825134 99.026413,193.992203 99.232788,194.211502 
	C103.807182,196.322327 108.175201,198.213837 112.543228,200.105347 
z"/>
<path fill="#030303" opacity="1.000000" stroke="none" 
	d="
M466.472015,159.000336 
	C466.471985,190.449081 466.471985,221.397842 466.471985,252.679581 
	C456.076416,252.679581 446.018097,252.679581 435.593811,252.679581 
	C435.593811,211.743607 435.593811,170.720230 435.593811,129.363159 
	C445.631042,129.363159 455.701843,129.363159 466.472046,129.363159 
	C466.472046,138.988495 466.472046,148.744400 466.472015,159.000336 
z"/>
<path fill="#FCFAF8" opacity="1.000000" stroke="none" 
	d="
M989.988403,194.490646 
	C989.988403,194.490646 990.216736,194.902985 990.505859,195.299835 
	C991.096741,195.905533 991.398560,196.114395 991.700378,196.323257 
	C991.700378,196.323257 991.713989,196.043762 991.755005,196.425018 
	C992.068604,196.990265 992.341248,197.174271 992.613892,197.358307 
	C992.613892,197.358307 992.586487,197.123169 992.668213,197.568634 
	C994.724915,200.110703 996.700012,202.207321 998.675110,204.303909 
	C998.675110,204.303894 998.848083,204.343277 998.821777,204.560303 
	C999.068848,204.969513 999.342224,205.161713 999.615601,205.353912 
	C999.615601,205.353897 999.982666,205.281784 999.861572,205.570007 
	C999.909180,206.172546 1000.171021,206.347366 1000.525940,206.382706 
	C1000.525940,206.382706 1000.647461,206.407394 1000.654907,206.748993 
	C1001.310669,208.222092 1001.958862,209.353592 1002.190308,210.612961 
	C1000.524109,211.093384 999.274658,211.445953 997.468201,211.955673 
	C1000.028320,215.027252 1001.982788,217.372177 1004.025574,219.823090 
	C1005.866882,219.489532 1007.775391,219.143829 1009.995422,218.861252 
	C1013.498779,222.326706 1016.690491,225.729019 1019.882202,229.131332 
	C1019.882202,229.131348 1019.963684,228.999069 1019.990051,229.382385 
	C1023.576538,233.276627 1027.136719,236.787552 1030.696777,240.298492 
	C1030.696777,240.298492 1030.875122,239.992722 1030.896484,240.429779 
	C1031.590820,241.273071 1032.263794,241.679291 1032.936768,242.085510 
	C1032.936768,242.085510 1033.007812,242.018356 1033.096924,242.354584 
	C1038.421875,245.510803 1043.657593,248.330780 1048.893433,251.150757 
	C1048.893433,251.150742 1049.010864,251.094330 1049.129883,251.383240 
	C1050.864258,252.317078 1052.479614,252.962036 1054.095093,253.606995 
	C1052.463745,254.169891 1050.361328,255.680435 1049.277466,255.141739 
	C1042.278809,251.663239 1035.079834,248.320374 1028.794922,243.762863 
	C1024.250122,240.467163 1021.016357,235.363647 1016.958740,230.797272 
	C1014.342590,232.907379 1012.078003,234.733994 1008.888855,237.306259 
	C1008.050232,234.563034 1007.333313,232.217972 1006.235718,228.627777 
	C1009.281677,229.598984 1010.838745,230.095459 1012.491272,230.622360 
	C1012.093567,225.042938 1009.693237,223.308243 1005.443237,225.718918 
	C1003.266235,226.953720 1001.797791,229.386658 999.701538,230.832077 
	C998.191101,231.873566 996.172729,232.178345 993.966064,232.659241 
	C996.417114,228.910126 999.283081,225.313522 1002.455444,221.332336 
	C996.050781,214.321777 989.755676,207.431137 983.312866,199.926849 
	C981.916504,197.160522 980.695007,196.456558 979.541504,199.381119 
	C979.541504,199.381119 979.489075,199.493393 979.163574,199.619476 
	C978.256592,200.516068 977.675049,201.286606 977.093506,202.057129 
	C977.093506,202.057129 977.005981,202.030716 976.743286,202.194992 
	C975.610901,203.539581 974.741211,204.719879 973.871460,205.900192 
	C973.871460,205.900192 973.971985,206.005417 973.645508,206.059357 
	C972.759460,206.940216 972.199951,207.767151 971.640381,208.594055 
	C971.640381,208.594055 971.689758,208.689682 971.336792,208.792053 
	C965.257324,213.180115 959.530823,217.465820 953.804321,221.751495 
	C953.804321,221.751480 954.010315,221.811996 953.493652,221.763641 
	C951.990723,221.853180 950.998962,221.960022 950.018982,222.133530 
	C930.944214,225.511169 914.720398,213.965607 911.759094,194.993881 
	C910.403564,186.309814 913.208008,178.695526 917.424500,171.385300 
	C917.424500,171.385300 917.214417,171.063339 917.620300,171.072510 
	C919.799561,169.202454 921.572998,167.323212 923.346436,165.444000 
	C923.346436,165.444000 923.247253,165.341721 923.541016,165.294586 
	C924.129883,165.092560 924.314392,164.852631 924.388245,164.527695 
	C924.388245,164.527695 924.426331,164.450180 924.764038,164.400085 
	C926.110107,163.605759 927.118530,162.861542 928.126953,162.117310 
	C928.126953,162.117325 928.035645,162.044220 928.438843,162.061249 
	C932.550903,160.956100 936.259644,159.833908 939.968445,158.711731 
	C942.025574,158.746765 944.082642,158.781830 946.955444,158.896286 
	C950.851868,159.707764 953.932556,160.439835 957.013245,161.171906 
	C957.013245,161.171906 957.184814,161.341125 957.529419,161.572357 
	C959.064148,162.377090 960.254333,162.950577 961.444458,163.524078 
	C961.444458,163.524078 961.555664,163.540558 961.711304,163.854492 
	C962.894531,164.805542 963.922058,165.442673 964.949585,166.079803 
	C964.949585,166.079819 964.994873,166.005341 965.071655,166.315704 
	C965.928955,167.222717 966.709412,167.819366 967.489868,168.416016 
	C967.489868,168.416031 967.573853,168.393188 967.642883,168.662811 
	C967.891724,169.227097 968.154053,169.382248 968.498962,169.397873 
	C968.498962,169.397873 968.620300,169.380386 968.662109,169.747406 
	C970.636658,172.200317 972.569275,174.286194 974.501892,176.372070 
	C974.501892,176.372086 974.586426,176.368896 974.672668,176.641357 
	C974.959106,177.216721 975.240540,177.357727 975.603088,177.336823 
	C975.603088,177.336823 975.653931,177.134689 975.705688,177.536407 
	C976.078674,178.167526 976.399780,178.396957 976.720947,178.626389 
	C976.720947,178.626389 976.697449,178.853119 976.841675,179.261292 
	C978.468506,181.243317 979.951050,182.817154 981.433594,184.390991 
	C981.433594,184.390976 981.529175,184.396744 981.618530,184.757202 
	C984.108521,187.806549 986.509216,190.495468 988.909912,193.184372 
	C988.982056,193.348007 989.054199,193.511673 989.301147,193.999023 
	C989.475952,194.322708 989.688416,194.539749 989.688416,194.539749 
	C989.688416,194.539749 989.988403,194.490646 989.988403,194.490646 
z"/>
<path fill="#FCFAF8" opacity="1.000000" stroke="none" 
	d="
M1089.953369,128.371490 
	C1066.537476,123.324844 1045.346313,127.467293 1027.398193,144.161148 
	C1022.910278,148.335434 1019.028870,153.189896 1015.137817,157.951660 
	C1014.440979,158.804352 1014.461609,161.234909 1015.171448,162.089920 
	C1021.324402,169.501923 1027.710571,176.720306 1034.407349,184.433914 
	C1039.349365,178.904160 1043.807983,173.581619 1048.616943,168.597122 
	C1063.026001,153.662079 1087.315796,155.809219 1098.982788,172.925598 
	C1106.426392,183.845764 1106.242310,198.617722 1098.527100,209.526123 
	C1091.068359,220.071991 1077.088623,225.076141 1064.489746,222.108856 
	C1055.709595,220.040985 1049.514771,214.553619 1043.887573,208.004089 
	C1027.291992,188.688690 1010.545166,169.502289 994.055481,150.097198 
	C985.963074,140.574005 976.081177,133.890350 964.195129,129.378448 
	C965.284424,128.922043 966.770264,128.227325 967.928833,128.587036 
	C972.168701,129.903381 976.448242,131.270493 980.409424,133.231308 
	C982.425720,134.229340 983.686401,136.658142 985.478943,138.221985 
	C990.215698,142.354370 995.404236,146.030945 999.754883,150.525879 
	C1003.850159,154.756989 1007.105591,159.801010 1010.822266,164.606064 
	C1011.064453,164.415268 1011.768860,164.007523 1011.720764,163.876938 
	C1009.640320,158.227814 1013.911133,155.222961 1016.365845,151.105881 
	C1020.532532,144.117401 1028.113037,141.639954 1033.411377,136.313431 
	C1035.406128,134.308289 1037.279785,132.182831 1039.660156,129.627533 
	C1043.726562,130.057938 1048.465820,129.744034 1052.099976,125.204674 
	C1052.792358,124.339729 1055.019531,124.618843 1056.548096,124.526726 
	C1059.188721,124.367592 1061.836670,124.331169 1064.481567,124.243263 
	C1064.459717,123.619324 1064.437866,122.995384 1064.416016,122.371452 
	C1061.778442,122.120338 1059.140869,121.869232 1056.205811,121.589783 
	C1058.675049,118.751190 1074.594238,117.842476 1088.667725,119.426521 
	C1087.676514,120.599060 1086.879395,121.542038 1086.343140,122.176399 
	C1087.632690,124.296227 1088.765259,126.157959 1089.953369,128.371490 
M1095.781250,197.997971 
	C1100.067139,198.400284 1098.269531,195.466568 1098.394897,193.419678 
	C1098.717773,188.142517 1099.213379,182.875916 1099.623291,177.811615 
	C1097.811890,177.305756 1097.319336,177.008743 1096.879883,177.073181 
	C1095.011597,177.346970 1093.159058,177.727905 1091.300781,178.069717 
	C1091.986084,179.740005 1092.819458,181.368210 1093.310059,183.093842 
	C1093.706421,184.488297 1093.689453,186.000229 1093.922607,188.046341 
	C1087.617432,184.171585 1086.852417,175.761475 1092.660278,170.658173 
	C1090.096558,169.971390 1088.228516,169.623413 1086.479858,168.960785 
	C1084.630859,168.260193 1081.390503,167.324005 1081.350220,166.380417 
	C1081.052979,159.393219 1077.455933,162.645630 1074.552124,163.973465 
	C1067.100830,156.514465 1062.897827,164.721527 1057.892212,166.891296 
	C1057.492676,169.749893 1057.147705,172.218964 1056.797974,174.721115 
	C1051.201294,173.669479 1043.645508,176.573730 1041.096558,180.392380 
	C1039.903564,182.179626 1039.151733,184.565964 1037.517090,185.666611 
	C1035.944824,186.725266 1033.491211,186.475128 1030.996094,186.867523 
	C1035.011963,191.379715 1038.834229,195.674316 1043.407349,200.812576 
	C1046.499146,200.425751 1049.310791,201.937988 1049.162354,207.186966 
	C1049.130249,208.323486 1050.479370,210.152283 1051.588989,210.546844 
	C1055.073242,211.785843 1058.746704,212.493057 1062.363647,213.410492 
	C1060.389038,218.425003 1061.059204,219.506866 1066.385498,219.965302 
	C1068.203613,220.121796 1070.075317,220.329056 1071.858887,220.071884 
	C1075.327393,219.571762 1078.733521,218.650375 1082.196777,218.101089 
	C1088.208008,217.147736 1085.034302,212.620956 1085.405151,208.895721 
	C1090.015991,210.272141 1094.117310,210.235779 1096.108643,205.996140 
	C1095.697998,203.034073 1095.348999,200.517029 1095.781250,197.997971 
M1076.550171,124.588112 
	C1076.664917,123.818428 1076.779663,123.048737 1076.894409,122.279045 
	C1073.668091,122.279045 1070.441772,122.279045 1067.215332,122.279045 
	C1067.209717,123.147064 1067.204224,124.015091 1067.198608,124.883110 
	C1070.059570,124.883110 1072.920532,124.883110 1076.550171,124.588112 
M1095.097290,174.731979 
	C1095.042236,174.232651 1094.987183,173.733322 1094.932129,173.234024 
	C1094.484985,173.348831 1094.037720,173.463654 1093.590576,173.578445 
	C1093.893433,174.004807 1094.196167,174.431152 1095.097290,174.731979 
z"/>
<path fill="#040404" opacity="1.000000" stroke="none" 
	d="
M467.952972,104.702438 
	C462.690399,113.228531 454.936035,115.209801 446.113129,113.748352 
	C436.961090,112.232376 431.352753,104.250771 431.907318,94.359550 
	C432.407288,85.442726 439.242676,78.565964 448.293304,77.874397 
	C464.666992,76.623245 474.085632,89.211243 467.952972,104.702438 
z"/>
<path fill="#FCFAF8" opacity="1.000000" stroke="none" 
	d="
M880.405640,175.078369 
	C876.051819,197.850449 880.831726,218.225723 897.008057,235.389893 
	C906.896545,245.882309 919.176941,252.133331 933.730103,254.685959 
	C929.295044,256.591522 924.574707,256.116882 920.324097,253.777328 
	C915.679810,251.221008 915.833252,250.942230 912.839600,252.432190 
	C910.523804,251.040909 908.411133,250.075607 906.673340,248.652573 
	C904.374756,246.770386 902.479736,244.400589 900.214417,242.471436 
	C895.990540,238.874527 891.575317,235.502441 887.347717,231.909653 
	C886.068481,230.822479 884.084778,229.185028 884.228516,228.022873 
	C885.284668,219.485550 880.217834,212.802628 877.907349,205.303574 
	C876.747620,201.539368 875.957520,197.661285 875.358154,193.350922 
	C875.845825,190.760239 875.975586,188.653320 876.105347,186.546402 
	C875.521667,186.560318 874.937927,186.574234 874.354248,186.588150 
	C874.569275,188.725021 874.784302,190.861908 874.999329,192.998779 
	C873.685669,192.086670 871.346558,191.281479 871.238342,190.243683 
	C870.803284,186.070801 871.058289,181.825958 871.058289,177.607727 
	C871.622986,177.486404 872.187683,177.365082 872.752380,177.243774 
	C873.382507,179.287964 874.012573,181.332138 875.027893,184.626266 
	C876.294128,182.819504 877.291565,181.685898 877.951843,180.381607 
	C878.796143,178.713745 879.368591,176.908310 880.405640,175.078369 
z"/>
<path fill="#FCFAF8" opacity="1.000000" stroke="none" 
	d="
M961.961182,128.394028 
	C937.790527,123.070892 916.243103,127.943642 897.463623,145.102829 
	C897.716614,143.620758 897.831665,141.394363 898.956970,140.601166 
	C906.182739,135.507874 913.070679,129.807510 922.106201,127.796188 
	C923.998047,127.375053 925.432068,124.896751 926.947266,124.443436 
	C934.244995,124.620865 941.543579,124.906036 948.839294,124.843727 
	C949.784851,124.835648 950.715149,123.033287 951.652527,122.062042 
	C950.448303,121.817871 949.194641,121.225143 948.047974,121.387497 
	C941.770447,122.276375 935.556763,122.666290 929.439453,121.072456 
	C929.445679,120.600037 929.451904,120.127617 929.458130,119.655197 
	C939.754517,119.655197 950.050842,119.655197 960.463074,119.655197 
	C959.136475,121.355270 957.890564,122.951920 957.167725,123.878212 
	C959.225647,125.693077 960.569275,126.877991 961.961182,128.394028 
z"/>
<path fill="#FCFAF8" opacity="1.000000" stroke="none" 
	d="
M1103.499512,247.291351 
	C1121.965454,237.195068 1132.139160,221.292374 1135.992798,200.944855 
	C1136.512695,198.199646 1137.184570,195.483170 1138.222900,192.376404 
	C1139.108276,191.999619 1139.556519,191.999817 1140.004883,192.000000 
	C1143.652222,193.614059 1143.853394,195.210327 1140.746582,198.056427 
	C1138.879883,199.766495 1137.554565,202.644958 1137.091675,205.198715 
	C1135.847046,212.066299 1133.600220,218.421585 1130.189209,224.522675 
	C1129.015869,226.621613 1129.353638,229.565338 1129.000488,232.561554 
	C1129.000000,233.000000 1128.995117,233.003891 1128.995117,233.003906 
	C1127.222534,233.653809 1124.903442,233.801819 1123.768799,235.037476 
	C1117.784668,241.555450 1111.049683,247.197205 1103.062866,250.813995 
	C1097.874268,253.163635 1091.964966,253.921997 1086.456787,254.869385 
	C1092.189819,251.994064 1097.844604,249.642700 1103.499512,247.291351 
z"/>
<path fill="#FFF6EF" opacity="1.000000" stroke="none" 
	d="
M1140.003662,191.531342 
	C1139.556519,191.999817 1139.108276,191.999619 1138.323730,191.995972 
	C1137.906250,178.385361 1137.773682,164.778244 1137.755615,151.171005 
	C1137.724854,128.092957 1137.766113,105.014809 1138.209229,81.470825 
	C1139.094360,81.003395 1139.547119,81.001846 1140.000000,81.000305 
	C1140.000732,117.687767 1140.001587,154.375229 1140.003662,191.531342 
z"/>
<path fill="#FCFAF8" opacity="1.000000" stroke="none" 
	d="
M1105.546509,79.081696 
	C1105.885864,88.272858 1105.812744,97.561340 1105.786377,106.849953 
	C1105.760010,116.086929 1105.780640,125.324036 1105.780640,135.291641 
	C1100.853882,133.195007 1096.648804,131.405518 1092.198242,129.369400 
	C1094.029663,129.269379 1096.151733,129.201996 1098.169434,129.628433 
	C1099.869629,129.987717 1101.448486,130.920792 1103.740356,131.874146 
	C1103.838379,129.793243 1103.986938,128.077957 1103.989258,126.362465 
	C1104.008301,112.302078 1103.961548,98.241417 1104.050903,84.181572 
	C1104.061401,82.511803 1104.769653,80.846466 1105.546509,79.081696 
z"/>
<path fill="#FCFAF8" opacity="1.000000" stroke="none" 
	d="
M953.233032,255.243408 
	C963.837097,252.480331 974.311462,249.065552 983.098755,241.896545 
	C986.542664,239.086884 989.674133,235.894318 993.230225,232.732224 
	C992.378479,235.114868 991.566589,237.857895 990.044556,240.123840 
	C986.653320,245.172638 981.380920,247.613754 975.983826,250.148422 
	C968.768005,253.537308 961.531311,256.003204 953.233032,255.243408 
z"/>
<path fill="#EA6D5B" opacity="1.000000" stroke="none" 
	d="
M88.597443,128.931564 
	C87.328629,130.245117 85.867966,132.046417 83.990532,132.777573 
	C69.895271,138.266907 55.718517,143.547104 41.561230,148.876709 
	C41.269493,148.986526 40.905285,148.903809 40.183220,148.817200 
	C49.580997,144.615005 59.348576,140.453339 69.167747,136.417145 
	C75.476761,133.823807 81.861694,131.415146 88.597443,128.931564 
z"/>
<path fill="#FCFAF8" opacity="1.000000" stroke="none" 
	d="
M896.809937,145.117249 
	C890.606873,153.474655 884.545776,162.112137 881.366821,172.786789 
	C880.783936,172.519745 880.043579,171.894073 880.145386,171.471329 
	C881.647888,165.235413 882.413330,158.761536 887.149841,153.700272 
	C889.019409,151.702652 890.078979,148.946991 891.507385,146.536499 
	C891.115601,146.203339 890.723816,145.870178 890.332092,145.537018 
	C892.366577,145.392563 894.401123,145.248108 896.809937,145.117249 
z"/>
<path fill="#E56156" opacity="1.000000" stroke="none" 
	d="
M1103.091309,247.209167 
	C1097.844604,249.642700 1092.189819,251.994064 1086.241699,254.554932 
	C1076.955688,254.735596 1067.962769,254.706757 1058.319092,254.511780 
	C1057.110840,254.280640 1056.553345,254.215622 1055.995972,254.150604 
	C1055.582764,253.994141 1055.169556,253.837677 1054.425781,253.644104 
	C1052.479614,252.962036 1050.864258,252.317078 1049.065796,251.394821 
	C1057.681396,252.086090 1066.459473,253.403519 1075.284546,253.922363 
	C1083.637817,254.413483 1091.623169,252.464050 1098.932739,248.116653 
	C1100.001099,247.481216 1101.424072,247.442062 1103.091309,247.209167 
z"/>
<path fill="#FCFAF8" opacity="1.000000" stroke="none" 
	d="
M1114.096191,73.000381 
	C1121.821411,73.000336 1129.062378,73.000336 1136.303223,73.000336 
	C1136.308350,73.588295 1136.313354,74.176262 1136.318359,74.764221 
	C1126.322388,74.764221 1116.326294,74.764221 1106.330322,74.764221 
	C1106.267456,74.312668 1106.204712,73.861115 1106.141846,73.409561 
	C1108.631836,73.273186 1111.121826,73.136803 1114.096191,73.000381 
z"/>
<path fill="#EA6D5B" opacity="1.000000" stroke="none" 
	d="
M99.386642,153.015808 
	C100.416878,151.998840 101.695503,150.585007 103.268623,150.068985 
	C110.216248,147.790009 110.976288,146.809753 111.082047,139.538910 
	C111.126961,136.450500 111.539871,133.367416 112.117119,130.112122 
	C112.584618,135.221649 112.894798,140.506699 112.721985,145.775909 
	C112.683487,146.949783 111.170433,148.544540 109.947784,149.119766 
	C106.667824,150.662918 103.177406,151.758728 99.386642,153.015808 
z"/>
<path fill="#EA6D5B" opacity="1.000000" stroke="none" 
	d="
M112.604874,126.677612 
	C105.607033,120.085800 99.593758,126.344482 93.302521,128.271896 
	C92.710243,128.453339 92.064590,128.460602 91.223816,128.316284 
	C97.916939,125.115479 104.829987,122.147110 112.757370,118.743202 
	C112.757370,121.890106 112.757370,124.079956 112.604874,126.677612 
M110.600235,122.520943 
	C110.600235,122.520943 110.477722,122.594765 110.600235,122.520943 
z"/>
<path fill="#EC796E" opacity="1.000000" stroke="none" 
	d="
M97.084274,221.411987 
	C99.781601,222.018707 102.814339,222.611298 105.541519,223.867325 
	C109.840981,225.847473 111.108376,225.289444 111.442978,220.547989 
	C111.674019,217.274048 111.889175,213.998993 112.310669,210.389938 
	C112.639946,214.982162 112.867882,219.908997 112.862389,224.835556 
	C112.859207,227.680679 111.496635,228.733322 108.699875,227.307220 
	C104.922455,225.381058 101.090958,223.560974 97.084274,221.411987 
z"/>
<path fill="#FCFAF8" opacity="1.000000" stroke="none" 
	d="
M1254.263916,210.794189 
	C1252.610962,210.223709 1251.085571,209.611176 1249.825317,208.650726 
	C1247.093872,206.569168 1245.139893,206.976898 1243.474121,210.323410 
	C1242.775024,209.489059 1242.376099,208.464493 1241.967041,207.413742 
	C1249.883545,202.785019 1252.803101,203.497192 1254.263916,210.794189 
z"/>
<path fill="#FCFAF8" opacity="1.000000" stroke="none" 
	d="
M1126.156250,67.000618 
	C1129.512817,67.000610 1132.412476,67.000610 1135.312012,67.000610 
	C1135.315918,67.459740 1135.319824,67.918877 1135.323730,68.378006 
	C1130.473999,68.378006 1125.624390,68.378006 1120.774658,68.378006 
	C1120.712524,68.094078 1120.650269,67.810143 1120.588135,67.526215 
	C1122.291870,67.351013 1123.995728,67.175819 1126.156250,67.000618 
z"/>
<path fill="#FCFAF8" opacity="1.000000" stroke="none" 
	d="
M1129.002441,232.998047 
	C1130.508789,233.772385 1133.035889,234.314011 1133.280029,235.379181 
	C1133.660034,237.035812 1132.487549,239.048401 1131.973145,240.910110 
	C1131.279419,240.889862 1130.585693,240.869629 1129.891968,240.849380 
	C1129.594360,238.519119 1129.296875,236.188873 1128.997192,233.431244 
	C1128.995117,233.003891 1129.000000,233.000000 1129.002441,232.998047 
z"/>
<path fill="#FCFAF8" opacity="1.000000" stroke="none" 
	d="
M1193.429565,212.218887 
	C1191.418457,208.766815 1189.782715,205.248734 1188.185791,201.362930 
	C1190.610718,204.399033 1192.996826,207.802856 1195.382935,211.206665 
	C1194.856934,211.522064 1194.330811,211.837463 1193.429565,212.218887 
z"/>
<path fill="#FCFAF8" opacity="1.000000" stroke="none" 
	d="
M902.538574,134.597702 
	C900.776062,135.219131 899.158508,135.499573 897.540894,135.780029 
	C897.568176,134.707764 897.595459,133.635483 897.622742,132.563217 
	C899.309631,133.127716 900.996582,133.692230 902.538574,134.597702 
z"/>
<path fill="#EC796E" opacity="1.000000" stroke="none" 
	d="
M112.632797,199.768707 
	C108.175201,198.213837 103.807182,196.322327 99.274323,194.121521 
	C103.647102,195.685501 108.184731,197.558792 112.632797,199.768707 
z"/>
<path fill="#FCFAF8" opacity="1.000000" stroke="none" 
	d="
M884.028992,148.766129 
	C884.515625,147.314468 885.020630,146.252289 885.525635,145.190094 
	C886.272461,145.742447 887.648132,146.306366 887.638245,146.844818 
	C887.616150,148.049301 886.903809,149.241104 886.472656,150.438065 
	C885.664185,150.010574 884.855774,149.583084 884.028992,148.766129 
z"/>
<path fill="#FCFAF8" opacity="1.000000" stroke="none" 
	d="
M1111.996094,67.000854 
	C1113.740479,67.128418 1115.059692,67.255989 1116.378784,67.383568 
	C1116.363770,67.748634 1116.348633,68.113693 1116.333496,68.478760 
	C1113.479614,68.478760 1110.625732,68.478760 1107.771851,68.478760 
	C1107.700928,68.164055 1107.630005,67.849342 1107.559204,67.534637 
	C1108.896362,67.356720 1110.233643,67.178795 1111.996094,67.000854 
z"/>
<path fill="#FCFAF8" opacity="1.000000" stroke="none" 
	d="
M1172.971436,235.301605 
	C1173.957764,235.678940 1174.915161,236.379288 1176.006348,237.349304 
	C1175.010986,238.459229 1173.881958,239.299469 1172.752930,240.139709 
	C1172.816162,238.634674 1172.879272,237.129654 1172.971436,235.301605 
z"/>
<path fill="#FCFAF8" opacity="1.000000" stroke="none" 
	d="
M1249.140625,243.058075 
	C1250.227783,241.802658 1251.670654,240.698898 1253.435791,239.465332 
	C1254.148926,242.619400 1253.607544,244.877716 1249.140625,243.058075 
z"/>
<path fill="#FCFAF8" opacity="1.000000" stroke="none" 
	d="
M1177.996338,239.458923 
	C1179.340576,239.809982 1180.682739,240.547745 1182.212280,241.561737 
	C1181.322632,242.458130 1180.245605,243.078308 1178.508789,244.078369 
	C1178.304443,242.397827 1178.149414,241.121719 1177.996338,239.458923 
z"/>
<path fill="#FCFAF8" opacity="1.000000" stroke="none" 
	d="
M1167.363770,229.372955 
	C1168.790039,230.272949 1169.797363,231.341141 1170.896240,232.723572 
	C1167.910522,233.361801 1166.890503,232.479553 1167.363770,229.372955 
z"/>
<path fill="#FCFAF8" opacity="1.000000" stroke="none" 
	d="
M939.088196,255.602432 
	C940.718201,255.223557 942.441772,255.184662 944.586365,255.244446 
	C943.065491,255.542892 941.123657,255.742661 939.088196,255.602432 
z"/>
<path fill="#FCFAF8" opacity="1.000000" stroke="none" 
	d="
M990.409302,133.136963 
	C991.410522,133.710678 992.064819,134.354416 992.719116,134.998184 
	C992.201904,135.269867 991.684753,135.541550 991.167480,135.813232 
	C990.799133,134.944489 990.430725,134.075745 990.409302,133.136963 
z"/>
<path fill="#FCFAF8" opacity="1.000000" stroke="none" 
	d="
M1015.059692,238.868073 
	C1016.395569,238.611511 1017.401428,238.449707 1018.407288,238.287888 
	C1018.490967,238.690674 1018.574585,239.093460 1018.658264,239.496246 
	C1016.987793,239.906967 1015.317322,240.317688 1013.646851,240.728409 
	C1013.534241,240.460129 1013.421570,240.191833 1013.308960,239.923538 
	C1013.782532,239.603317 1014.256104,239.283081 1015.059692,238.868073 
z"/>
<path fill="#FCFAF8" opacity="1.000000" stroke="none" 
	d="
M1140.258789,80.787872 
	C1139.547119,81.001846 1139.094360,81.003395 1138.301758,81.010635 
	C1137.720215,80.494194 1137.478271,79.972054 1137.132324,79.181793 
	C1139.063110,77.637596 1140.870728,76.838089 1140.258789,80.787872 
z"/>
<path fill="#FCFAF8" opacity="1.000000" stroke="none" 
	d="
M976.152710,256.585175 
	C974.758728,256.737457 973.633667,256.666718 972.508667,256.595978 
	C972.626404,256.061401 972.744202,255.526855 972.861938,254.992294 
	C974.048523,255.448898 975.235046,255.905518 976.152710,256.585175 
z"/>
<path fill="#EC796E" opacity="1.000000" stroke="none" 
	d="
M87.785950,217.654922 
	C89.882751,218.162323 92.228790,218.928391 94.722702,220.028534 
	C92.592117,219.546265 90.313660,218.729935 87.785950,217.654922 
z"/>
<path fill="#FCFAF8" opacity="1.000000" stroke="none" 
	d="
M886.743896,240.534027 
	C887.333923,239.844238 888.158875,239.375137 888.983887,238.906036 
	C889.158691,239.368683 889.333496,239.831329 889.508301,240.293976 
	C888.665161,240.447540 887.821960,240.601120 886.743896,240.534027 
z"/>
<path fill="#FCFAF8" opacity="1.000000" stroke="none" 
	d="
M1026.000488,132.399994 
	C1026.664917,133.065750 1027.006348,133.780426 1027.347656,134.495102 
	C1026.908325,134.578781 1026.469116,134.662445 1026.029785,134.746124 
	C1025.912231,133.980392 1025.794800,133.214661 1026.000488,132.399994 
z"/>
<path fill="#EA6D5B" opacity="1.000000" stroke="none" 
	d="
M39.454002,148.704117 
	C38.326252,149.433594 36.838963,150.171997 34.960381,150.831085 
	C36.077541,150.072189 37.586002,149.392609 39.454002,148.704117 
z"/>
<path fill="#FCFAF8" opacity="1.000000" stroke="none" 
	d="
M872.506714,207.333191 
	C871.963501,206.988846 871.637695,206.429596 871.311890,205.870361 
	C871.590454,205.743057 871.869080,205.615753 872.147644,205.488449 
	C872.339783,206.031738 872.531982,206.575027 872.506714,207.333191 
z"/>
<path fill="#FCFAF8" opacity="1.000000" stroke="none" 
	d="
M1208.889648,221.864792 
	C1208.064697,222.124954 1207.217896,222.016769 1206.103271,221.728638 
	C1206.846191,221.531265 1207.857056,221.513855 1208.889648,221.864792 
z"/>
<path fill="#FCFAF8" opacity="1.000000" stroke="none" 
	d="
M867.493530,194.666733 
	C868.036560,195.011078 868.362183,195.570312 868.687866,196.129562 
	C868.409241,196.256897 868.130737,196.384216 867.852173,196.511536 
	C867.660095,195.968231 867.468079,195.424927 867.493530,194.666733 
z"/>
<path fill="#FCFAF8" opacity="1.000000" stroke="none" 
	d="
M989.462158,250.987061 
	C990.046570,250.588379 990.627441,250.490616 991.208252,250.392853 
	C991.203125,250.803162 991.197998,251.213470 991.192871,251.623779 
	C990.614746,251.511841 990.036621,251.399902 989.462158,250.987061 
z"/>
<path fill="#FCFAF8" opacity="1.000000" stroke="none" 
	d="
M1219.950806,120.643478 
	C1219.244873,121.020981 1218.489258,121.069580 1217.365967,121.014023 
	C1217.965942,120.711441 1218.933594,120.513008 1219.950806,120.643478 
z"/>
<path fill="#FCFAF8" opacity="1.000000" stroke="none" 
	d="
M1136.794434,223.202728 
	C1136.430298,223.805344 1136.003418,224.108582 1135.576660,224.411835 
	C1135.462036,223.964172 1135.347534,223.516495 1135.233032,223.068802 
	C1135.732666,223.013641 1136.232178,222.958481 1136.794434,223.202728 
z"/>
<path fill="#FCFAF8" opacity="1.000000" stroke="none" 
	d="
M1261.975220,215.704056 
	C1261.354126,215.782150 1260.734497,215.493790 1259.966675,214.986801 
	C1260.206421,214.348419 1260.594238,213.928665 1260.982178,213.508881 
	C1261.313477,214.118439 1261.645020,214.728027 1261.975220,215.704056 
z"/>
<path fill="#EC796E" opacity="1.000000" stroke="none" 
	d="
M82.790619,215.662415 
	C83.894081,215.794907 85.243706,216.174088 86.782089,216.862076 
	C85.659500,216.750290 84.348145,216.329697 82.790619,215.662415 
z"/>
<path fill="#FCFAF8" opacity="1.000000" stroke="none" 
	d="
M983.605713,130.045593 
	C983.209290,130.287338 982.815063,130.285568 982.422974,130.255325 
	C982.411987,130.254471 982.424561,129.948883 982.426147,129.785385 
	C982.820190,129.789627 983.214172,129.793869 983.605713,130.045593 
z"/>
<path fill="#FCFAF8" opacity="1.000000" stroke="none" 
	d="
M1227.948975,221.570648 
	C1227.593506,222.041153 1227.184814,222.209976 1226.444580,222.341370 
	C1226.396729,221.686127 1226.680664,221.068298 1226.964478,220.450500 
	C1227.274902,220.723312 1227.585449,220.996124 1227.948975,221.570648 
z"/>
<path fill="#FCFAF8" opacity="1.000000" stroke="none" 
	d="
M1267.300171,223.973618 
	C1267.186768,223.455536 1267.365234,222.908340 1267.781494,222.183533 
	C1267.876709,222.652115 1267.734375,223.298325 1267.300171,223.973618 
z"/>
<path fill="#FCFAF8" opacity="1.000000" stroke="none" 
	d="
M977.394409,129.954620 
	C977.790710,129.712860 978.184998,129.714584 978.577026,129.744797 
	C978.587952,129.745651 978.575500,130.051224 978.573975,130.214706 
	C978.180054,130.210510 977.786011,130.206299 977.394409,129.954620 
z"/>
<path fill="#FCFAF8" opacity="1.000000" stroke="none" 
	d="
M1056.042480,254.447510 
	C1056.553345,254.215622 1057.110840,254.280640 1057.891968,254.521820 
	C1057.440063,254.713486 1056.764526,254.728958 1056.042480,254.447510 
z"/>
<path fill="#FCFAF8" opacity="1.000000" stroke="none" 
	d="
M999.465454,239.609116 
	C999.349487,240.058350 999.066467,240.333740 998.765564,240.587875 
	C998.757874,240.594391 998.553040,240.367477 998.440186,240.249359 
	C998.725464,239.977066 999.010803,239.704788 999.465454,239.609116 
z"/>
<path fill="#FCFAF8" opacity="1.000000" stroke="none" 
	d="
M850.394348,205.954010 
	C850.790771,205.712173 851.185242,205.713989 851.577515,205.744324 
	C851.588562,205.745178 851.576111,206.050919 851.574585,206.214493 
	C851.180420,206.210205 850.786255,206.205917 850.394348,205.954010 
z"/>
<path fill="#FCFAF8" opacity="1.000000" stroke="none" 
	d="
M1157.517822,162.038879 
	C1157.720337,162.555176 1157.639282,163.114227 1157.331543,163.853973 
	C1157.148071,163.383652 1157.191162,162.732651 1157.517822,162.038879 
z"/>
<path fill="#EC796E" opacity="1.000000" stroke="none" 
	d="
M112.654373,206.618378 
	C112.385956,206.129501 112.269165,205.288757 112.325859,204.242523 
	C112.601562,204.780212 112.703781,205.523361 112.654373,206.618378 
z"/>
<path fill="#EC796E" opacity="1.000000" stroke="none" 
	d="
M98.939445,193.590149 
	C98.540398,193.724304 97.947433,193.623474 97.171112,193.267090 
	C97.573692,193.126099 98.159615,193.240646 98.939445,193.590149 
z"/>
<path fill="#EA6D5B" opacity="1.000000" stroke="none" 
	d="
M31.645226,151.807709 
	C31.424519,152.180176 30.867655,152.532318 29.959660,152.821823 
	C30.175373,152.435257 30.742220,152.111313 31.645226,151.807709 
z"/>
<path fill="#FCFAF8" opacity="1.000000" stroke="none" 
	d="
M1107.895020,78.682159 
	C1107.820068,78.872505 1107.658203,78.920311 1107.260498,78.876633 
	C1107.218140,78.415222 1107.479492,78.333374 1107.895020,78.682159 
z"/>
<path fill="#EA6D5B" opacity="1.000000" stroke="none" 
	d="
M33.690994,150.926697 
	C33.700680,151.190994 33.407978,151.460236 32.806305,151.717255 
	C32.794422,151.447220 33.091515,151.189423 33.690994,150.926697 
z"/>
<path fill="#FCFAF8" opacity="1.000000" stroke="none" 
	d="
M1181.466919,123.449547 
	C1181.522705,123.416245 1181.411133,123.482849 1181.466919,123.449547 
z"/>
<path fill="#FCFAF8" opacity="1.000000" stroke="none" 
	d="
M1185.533325,124.551208 
	C1185.476929,124.585175 1185.589722,124.517242 1185.533325,124.551208 
z"/>
<path fill="#EC796E" opacity="1.000000" stroke="none" 
	d="
M95.678833,220.824509 
	C95.850075,220.647614 96.220993,220.645142 96.753281,220.892166 
	C96.569275,221.094086 96.223892,221.046509 95.678833,220.824509 
z"/>
<path fill="#FCFAF8" opacity="1.000000" stroke="none" 
	d="
M1167.448242,137.533844 
	C1167.413818,137.476761 1167.482666,137.590912 1167.448242,137.533844 
z"/>
<path fill="#E56156" opacity="1.000000" stroke="none" 
	d="
M917.057800,171.368546 
	C913.208008,178.695526 910.403564,186.309814 911.759094,194.993881 
	C914.720398,213.965607 930.944214,225.511169 950.018982,222.133530 
	C950.998962,221.960022 951.990723,221.853180 953.398865,221.713226 
	C953.037415,222.445892 952.309570,223.748642 951.462708,223.831238 
	C935.146545,225.422714 919.629333,221.544281 912.136719,203.499756 
	C908.130127,193.850693 909.537170,184.951447 913.133057,175.922501 
	C913.819092,174.199814 915.479980,172.865356 917.057800,171.368546 
z"/>
<path fill="#E56156" opacity="1.000000" stroke="none" 
	d="
M954.205688,221.839172 
	C959.530823,217.465820 965.257324,213.180115 971.284424,208.779572 
	C971.664429,209.312790 972.059204,210.285599 971.776123,210.560638 
	C966.773254,215.420715 962.495361,221.424042 954.205688,221.839172 
z"/>
<path fill="#E56156" opacity="1.000000" stroke="none" 
	d="
M1019.922180,228.756958 
	C1016.690491,225.729019 1013.498779,222.326706 1009.925476,218.578705 
	C1009.165100,217.795898 1008.786194,217.358749 1008.320923,216.610779 
	C1007.908386,215.743988 1007.582336,215.187988 1007.429810,214.484970 
	C1007.603394,214.337936 1007.951294,214.044785 1007.951294,214.044769 
	C1011.319031,217.558273 1014.753052,221.011887 1018.011780,224.623688 
	C1018.926697,225.637756 1019.326233,227.116806 1019.922180,228.756958 
z"/>
<path fill="#E56156" opacity="1.000000" stroke="none" 
	d="
M1048.882812,250.787308 
	C1043.657593,248.330780 1038.421875,245.510803 1033.055176,242.379272 
	C1038.240356,244.853088 1043.556274,247.638474 1048.882812,250.787308 
z"/>
<path fill="#E56156" opacity="1.000000" stroke="none" 
	d="
M1030.771240,239.936981 
	C1027.136719,236.787552 1023.576538,233.276627 1019.936096,229.438324 
	C1023.519104,232.599106 1027.182495,236.087280 1030.771240,239.936981 
z"/>
<path fill="#E56156" opacity="1.000000" stroke="none" 
	d="
M988.937439,192.808197 
	C986.509216,190.495468 984.108521,187.806549 981.624390,184.804703 
	C984.015564,187.138504 986.490295,189.785248 988.937439,192.808197 
z"/>
<path fill="#E56156" opacity="1.000000" stroke="none" 
	d="
M939.679321,158.483185 
	C936.259644,159.833908 932.550903,160.956100 928.459534,162.115967 
	C930.938965,158.216248 935.168762,158.247498 939.679321,158.483185 
z"/>
<path fill="#E56156" opacity="1.000000" stroke="none" 
	d="
M998.756042,203.939636 
	C996.700012,202.207321 994.724915,200.110703 992.670166,197.689148 
	C994.672607,199.434555 996.754822,201.504944 998.756042,203.939636 
z"/>
<path fill="#E56156" opacity="1.000000" stroke="none" 
	d="
M974.636108,176.020370 
	C972.569275,174.286194 970.636658,172.200317 968.624512,169.795715 
	C970.620056,171.540894 972.695190,173.604782 974.636108,176.020370 
z"/>
<path fill="#E56156" opacity="1.000000" stroke="none" 
	d="
M1002.607117,210.485092 
	C1001.958862,209.353592 1001.310669,208.222092 1000.600647,206.778870 
	C1002.591980,208.446259 1004.645142,210.425369 1006.713989,212.862244 
	C1006.729736,213.320007 1006.457703,213.640961 1006.189453,213.457596 
	C1004.821472,212.361786 1003.721863,211.449341 1002.608521,210.527527 
	C1002.594849,210.518158 1002.607117,210.485092 1002.607117,210.485092 
z"/>
<path fill="#E56156" opacity="1.000000" stroke="none" 
	d="
M956.864441,160.828705 
	C953.932556,160.439835 950.851868,159.707764 947.394104,158.850647 
	C950.616394,157.292526 953.896973,157.616150 956.864441,160.828705 
z"/>
<path fill="#E56156" opacity="1.000000" stroke="none" 
	d="
M922.981201,165.329407 
	C921.572998,167.323212 919.799561,169.202454 917.743530,171.220032 
	C916.969055,167.456009 919.689026,166.248596 922.981201,165.329407 
z"/>
<path fill="#E56156" opacity="1.000000" stroke="none" 
	d="
M981.589661,184.042542 
	C979.951050,182.817154 978.468506,181.243317 976.930359,179.332947 
	C978.498413,180.562302 980.122070,182.128189 981.589661,184.042542 
z"/>
<path fill="#E56156" opacity="1.000000" stroke="none" 
	d="
M974.234009,205.902802 
	C974.741211,204.719879 975.610901,203.539581 976.772644,202.230057 
	C976.241943,203.369034 975.419250,204.637222 974.234009,205.902802 
z"/>
<path fill="#E56156" opacity="1.000000" stroke="none" 
	d="
M979.964050,199.573883 
	C980.695007,196.456558 981.916504,197.160522 983.149658,199.638550 
	C982.218323,199.898163 981.302429,199.832413 979.964050,199.573883 
z"/>
<path fill="#E56156" opacity="1.000000" stroke="none" 
	d="
M964.935547,165.709549 
	C963.922058,165.442673 962.894531,164.805542 961.730347,163.907410 
	C962.702942,164.210693 963.812195,164.774994 964.935547,165.709549 
z"/>
<path fill="#E56156" opacity="1.000000" stroke="none" 
	d="
M927.752319,162.074905 
	C927.118530,162.861542 926.110107,163.605759 924.801270,164.421982 
	C925.459778,163.673492 926.418701,162.852997 927.752319,162.074905 
z"/>
<path fill="#E56156" opacity="1.000000" stroke="none" 
	d="
M961.497559,163.122223 
	C960.254333,162.950577 959.064148,162.377090 957.646240,161.543091 
	C958.795898,161.761841 960.173340,162.241104 961.497559,163.122223 
z"/>
<path fill="#E56156" opacity="1.000000" stroke="none" 
	d="
M972.012451,208.682129 
	C972.199951,207.767151 972.759460,206.940216 973.606079,205.998291 
	C973.390320,206.845581 972.887390,207.807877 972.012451,208.682129 
z"/>
<path fill="#E56156" opacity="1.000000" stroke="none" 
	d="
M977.467651,202.038116 
	C977.675049,201.286606 978.256592,200.516068 979.107544,199.645996 
	C978.865295,200.370667 978.353577,201.194870 977.467651,202.038116 
z"/>
<path fill="#E56156" opacity="1.000000" stroke="none" 
	d="
M967.608887,168.049866 
	C966.709412,167.819366 965.928955,167.222717 965.036255,166.341095 
	C965.858643,166.598648 966.793335,167.141190 967.608887,168.049866 
z"/>
<path fill="#E56156" opacity="1.000000" stroke="none" 
	d="
M1032.921387,241.734314 
	C1032.263794,241.679291 1031.590820,241.273071 1030.813721,240.583633 
	C1031.441895,240.661316 1032.173950,241.022217 1032.921387,241.734314 
z"/>
<path fill="#E56156" opacity="1.000000" stroke="none" 
	d="
M1006.866089,213.159851 
	C1007.316589,213.119766 1007.568542,213.318649 1007.854736,213.820557 
	C1007.951294,214.044785 1007.603394,214.337936 1007.268555,214.343887 
	C1006.731323,214.142899 1006.572632,213.906601 1006.457703,213.640961 
	C1006.457703,213.640961 1006.729736,213.320007 1006.866089,213.159851 
z"/>
<path fill="#E56156" opacity="1.000000" stroke="none" 
	d="
M1000.574463,206.088287 
	C1000.171021,206.347366 999.909180,206.172546 999.681641,205.621735 
	C999.956238,205.521454 1000.289612,205.657669 1000.574463,206.088287 
z"/>
<path fill="#E56156" opacity="1.000000" stroke="none" 
	d="
M999.636414,205.060837 
	C999.342224,205.161713 999.068848,204.969513 998.741211,204.523529 
	C999.010376,204.435745 999.333801,204.601761 999.636414,205.060837 
z"/>
<path fill="#E56156" opacity="1.000000" stroke="none" 
	d="
M992.626343,197.066376 
	C992.341248,197.174271 992.068604,196.990265 991.727417,196.562195 
	C991.985474,196.470215 992.312195,196.622330 992.626343,197.066376 
z"/>
<path fill="#E56156" opacity="1.000000" stroke="none" 
	d="
M991.671814,196.017487 
	C991.398560,196.114395 991.096741,195.905533 990.703369,195.428223 
	C990.955688,195.343765 991.299438,195.527740 991.671814,196.017487 
z"/>
<path fill="#E56156" opacity="1.000000" stroke="none" 
	d="
M989.942566,194.387115 
	C989.988403,194.490646 989.688416,194.539749 989.688416,194.539749 
	C989.688416,194.539749 989.475952,194.322708 989.505188,194.173248 
	C989.534424,194.023804 989.896729,194.283585 989.942566,194.387115 
z"/>
<path fill="#E56156" opacity="1.000000" stroke="none" 
	d="
M924.099854,164.460678 
	C924.314392,164.852631 924.129883,165.092560 923.610474,165.310394 
	C923.527893,165.046783 923.669678,164.720230 924.099854,164.460678 
z"/>
<path fill="#E56156" opacity="1.000000" stroke="none" 
	d="
M968.540527,169.108215 
	C968.154053,169.382248 967.891724,169.227097 967.651733,168.705399 
	C967.921692,168.591766 968.251892,168.705154 968.540527,169.108215 
z"/>
<path fill="#E56156" opacity="1.000000" stroke="none" 
	d="
M976.713013,178.296249 
	C976.399780,178.396957 976.078674,178.167526 975.707764,177.640594 
	C976.007019,177.550751 976.356018,177.758423 976.713013,178.296249 
z"/>
<path fill="#E56156" opacity="1.000000" stroke="none" 
	d="
M975.613037,177.047729 
	C975.240540,177.357727 974.959106,177.216721 974.688843,176.680450 
	C974.953491,176.550919 975.288208,176.654785 975.613037,177.047729 
z"/>
<path fill="#FBFBFB" opacity="1.000000" stroke="none" 
	d="
M1208.275391,146.012436 
	C1210.502319,145.739670 1212.309448,145.406998 1214.128052,145.325882 
	C1230.223145,144.607986 1238.363281,153.002777 1239.579834,171.917877 
	C1222.411011,171.917877 1205.263428,171.917877 1188.114258,171.911713 
	C1187.835205,159.870987 1195.602051,149.709641 1208.275391,146.012436 
z"/>
<path fill="#FEFEFE" opacity="1.000000" stroke="none" 
	d="
M1008.407349,216.921600 
	C1008.786194,217.358749 1009.165100,217.795898 1009.613892,218.515564 
	C1007.775391,219.143829 1005.866882,219.489532 1004.025574,219.823090 
	C1001.982788,217.372177 1000.028320,215.027252 997.468201,211.955673 
	C999.274658,211.445953 1000.524109,211.093384 1002.190308,210.612961 
	C1002.607117,210.485092 1002.594849,210.518158 1002.434387,210.888840 
	C1003.856689,213.647018 1004.243347,217.330215 1008.407349,216.921600 
z"/>
<path fill="#FFFFFF" opacity="1.000000" stroke="none" 
	d="
M1095.000000,197.999985 
	C1095.348999,200.517029 1095.697998,203.034073 1096.108643,205.996140 
	C1094.117310,210.235779 1090.015991,210.272141 1085.405151,208.895721 
	C1085.034302,212.620956 1088.208008,217.147736 1082.196777,218.101089 
	C1078.733521,218.650375 1075.327393,219.571762 1071.858887,220.071884 
	C1070.075317,220.329056 1068.203613,220.121796 1066.385498,219.965302 
	C1061.059204,219.506866 1060.389038,218.425003 1062.363647,213.410492 
	C1058.746704,212.493057 1055.073242,211.785843 1051.588989,210.546844 
	C1050.479370,210.152283 1049.130249,208.323486 1049.162354,207.186966 
	C1049.310791,201.937988 1046.499146,200.425751 1043.407349,200.812576 
	C1038.834229,195.674316 1035.011963,191.379715 1030.996094,186.867523 
	C1033.491211,186.475128 1035.944824,186.725266 1037.517090,185.666611 
	C1039.151733,184.565964 1039.903564,182.179626 1041.096558,180.392380 
	C1043.645508,176.573730 1051.201294,173.669479 1056.797974,174.721115 
	C1057.147705,172.218964 1057.492676,169.749893 1057.892212,166.891296 
	C1062.897827,164.721527 1067.100830,156.514465 1074.552124,163.973465 
	C1077.455933,162.645630 1081.052979,159.393219 1081.350220,166.380417 
	C1081.390503,167.324005 1084.630859,168.260193 1086.479858,168.960785 
	C1088.228516,169.623413 1090.096558,169.971390 1092.660278,170.658173 
	C1086.852417,175.761475 1087.617432,184.171585 1093.922607,188.046341 
	C1093.689453,186.000229 1093.706421,184.488297 1093.310059,183.093842 
	C1092.819458,181.368210 1091.986084,179.740005 1091.300781,178.069717 
	C1093.159058,177.727905 1095.011597,177.346970 1096.879883,177.073181 
	C1097.319336,177.008743 1097.811890,177.305756 1099.623291,177.811615 
	C1099.213379,182.875916 1098.717773,188.142517 1098.394897,193.419678 
	C1098.269531,195.466568 1100.067139,198.400284 1095.429932,197.633850 
	C1095.325928,195.990143 1095.573242,194.710541 1095.820557,193.430954 
	C1095.411499,193.194656 1095.002563,192.958344 1094.593506,192.722031 
	C1093.520142,193.644302 1092.446655,194.566574 1091.373291,195.488861 
	C1092.582153,196.325897 1093.791138,197.162933 1095.000000,197.999985 
M1071.928711,215.839340 
	C1073.982788,215.338364 1076.036743,214.837387 1078.090820,214.336426 
	C1077.999146,213.563446 1077.907593,212.790466 1077.815918,212.017487 
	C1074.325317,211.672775 1070.834717,211.328064 1067.344116,210.983353 
	C1067.178345,211.642014 1067.012573,212.300674 1066.846802,212.959320 
	C1068.293457,213.825531 1069.740234,214.691742 1071.928711,215.839340 
M1040.566895,189.295776 
	C1040.294800,189.010681 1040.022827,188.725586 1039.750732,188.440491 
	C1039.632690,188.553314 1039.406006,188.758057 1039.412354,188.765701 
	C1039.666382,189.066391 1039.941528,189.349152 1040.566895,189.295776 
z"/>
<path fill="#FEFEFE" opacity="1.000000" stroke="none" 
	d="
M1076.165771,124.735611 
	C1072.920532,124.883110 1070.059570,124.883110 1067.198608,124.883110 
	C1067.204224,124.015091 1067.209717,123.147064 1067.215332,122.279045 
	C1070.441772,122.279045 1073.668091,122.279045 1076.894409,122.279045 
	C1076.779663,123.048737 1076.664917,123.818428 1076.165771,124.735611 
z"/>
<path fill="#FFFFFF" opacity="1.000000" stroke="none" 
	d="
M1094.798096,174.794739 
	C1094.196167,174.431152 1093.893433,174.004807 1093.590576,173.578461 
	C1094.037720,173.463654 1094.484985,173.348831 1094.932129,173.234009 
	C1094.987183,173.733322 1095.042236,174.232651 1094.798096,174.794739 
z"/>
<path fill="#FEFEFE" opacity="1.000000" stroke="none" 
	d="
M874.999634,192.999390 
	C874.784302,190.861908 874.569275,188.725021 874.354248,186.588150 
	C874.937927,186.574234 875.521667,186.560318 876.105347,186.546402 
	C875.975586,188.653320 875.845825,190.760239 875.358154,192.934189 
	C875.000366,193.001221 875.000000,193.000000 874.999634,192.999390 
z"/>
<path fill="#F74D3A" opacity="1.000000" stroke="none" 
	d="
M110.538979,122.557854 
	C110.477722,122.594765 110.600235,122.520943 110.538979,122.557854 
z"/>
<path fill="#FCFAF8" opacity="1.000000" stroke="none" 
	d="
M1008.320923,216.610779 
	C1004.243347,217.330215 1003.856689,213.647018 1002.448059,210.898209 
	C1003.721863,211.449341 1004.821472,212.361786 1006.189453,213.457596 
	C1006.572632,213.906601 1006.731323,214.142899 1007.094971,214.490921 
	C1007.582336,215.187988 1007.908386,215.743988 1008.320923,216.610779 
z"/>
<path fill="#FCFAF8" opacity="1.000000" stroke="none" 
	d="
M1071.557861,215.698639 
	C1069.740234,214.691742 1068.293457,213.825531 1066.846802,212.959320 
	C1067.012573,212.300674 1067.178345,211.642014 1067.344116,210.983353 
	C1070.834717,211.328064 1074.325317,211.672775 1077.815918,212.017487 
	C1077.907593,212.790466 1077.999146,213.563446 1078.090820,214.336426 
	C1076.036743,214.837387 1073.982788,215.338364 1071.557861,215.698639 
z"/>
<path fill="#FCFAF8" opacity="1.000000" stroke="none" 
	d="
M1095.039307,197.634857 
	C1093.791138,197.162933 1092.582153,196.325897 1091.373291,195.488861 
	C1092.446655,194.566574 1093.520142,193.644302 1094.593506,192.722031 
	C1095.002563,192.958344 1095.411499,193.194656 1095.820557,193.430954 
	C1095.573242,194.710541 1095.325928,195.990143 1095.039307,197.634857 
z"/>
<path fill="#FCFAF8" opacity="1.000000" stroke="none" 
	d="
M1040.390381,189.465012 
	C1039.941528,189.349152 1039.666382,189.066391 1039.412354,188.765701 
	C1039.406006,188.758057 1039.632690,188.553314 1039.750732,188.440491 
	C1040.022827,188.725586 1040.294800,189.010681 1040.390381,189.465012 
z"/>
</svg>