<svg xmlns="http://www.w3.org/2000/svg" version="1.1" xmlns:xlink="http://www.w3.org/1999/xlink" xmlns:svgjs="http://svgjs.dev/svgjs" width="2000" height="434" viewBox="0 0 2000 434"><g transform="matrix(1,0,0,1,6.176374742786834,8.275802571524736)"><svg viewBox="0 0 396 86" data-background-color="#ffffff" preserveAspectRatio="xMidYMid meet" height="434" width="2000" xmlns="http://www.w3.org/2000/svg" xmlns:xlink="http://www.w3.org/1999/xlink"><g id="tight-bounds" transform="matrix(1,0,0,1,0.2400000000000091,0.3488528765160481)"><svg viewBox="0 0 395.52 85.3022942469679" height="85.3022942469679" width="395.52"><g><svg viewBox="0 0 595.0120388768731 128.32699236641216" height="85.3022942469679" width="395.52"><g><rect width="11.515085179163357" height="128.32699236641216" x="157.8327516580152" y="0" fill="#001f3f" opacity="1" stroke-width="0" stroke="transparent" fill-opacity="1" class="rect-yte-0" data-fill-palette-color="primary" rx="1%" id="yte-0" data-palette-color="#001f3f"></rect></g><g transform="matrix(1,0,0,1,199.4920388768732,0.31922137404578876)"><svg viewBox="0 0 395.5199999999999 127.68854961832058" height="127.68854961832058" width="395.5199999999999"><g id="textblocktransform"><svg viewBox="0 0 395.5199999999999 127.68854961832058" height="127.68854961832058" width="395.5199999999999" id="textblock"><g><svg viewBox="0 0 395.5199999999999 127.68854961832058" height="127.68854961832058" width="395.5199999999999"><g transform="matrix(1,0,0,1,0,0)"><svg width="395.5199999999999" viewBox="2.25 -38.25 157.19 50.75" height="127.68854961832058" data-palette-color="#001f3f"><path d="M6.95-10.65L6.95-6.45Q6.95-4.5 8.85-3.05 10.75-1.6 13.75-1.6 16.75-1.6 18.5-3.05 20.25-4.5 20.25-6.9L20.25-6.9Q20.25-9.95 16.6-11.95L16.6-11.95 9.2-15.9Q2.8-19.35 2.8-25.75L2.8-25.75Q2.8-29.85 5.8-32.8 8.8-35.75 14.75-35.75L14.75-35.75Q18.75-35.75 22.35-34.15 25.95-32.55 25.95-30.35L25.95-30.35Q25.95-29.5 25.4-28.4L25.4-28.4 23-23.8 21.25-24.35 21.25-28.55Q21.25-30.8 19.28-32.1 17.3-33.4 14.58-33.4 11.85-33.4 10.4-31.8 8.95-30.2 8.95-28.15L8.95-28.15Q8.95-24.05 12.65-22.1L12.65-22.1 19-18.75Q26.25-14.95 26.25-8.75L26.25-8.75Q26.25-4.05 22.73-1.65 19.2 0.75 13.8 0.75L13.8 0.75Q9.75 0.75 6-0.85 2.25-2.45 2.25-4.65L2.25-4.65Q2.25-5.5 2.8-6.6L2.8-6.6 5.2-11.2 6.95-10.65ZM34.7-25L34.7-25Q39.3-25 42.65-22.45L42.65-22.45Q45.3-25.75 49.55-25.75L49.55-25.75Q55.3-25.75 58.3-22.03 61.3-18.3 61.3-12.53 61.3-6.75 58.07-3 54.85 0.75 49.05 0.75L49.05 0.75Q44.75 0.75 42.2-3.1L42.2-3.1 42.2 12.5 34.7 12.5 34.7-23Q32.45-23 30.7-22.25L30.7-22.25 30-24.1Q32.15-25 34.7-25ZM52.15-4.9Q53.55-7.7 53.55-12.5 53.55-17.3 52.15-20.1 50.75-22.9 47.87-22.9 45-22.9 43.47-20.08 41.95-17.25 41.95-12.5 41.95-7.75 43.47-4.93 45-2.1 47.87-2.1 50.75-2.1 52.15-4.9ZM64.55-34.95Q66-36.45 68.22-37.35 70.45-38.25 72.62-38.25 74.8-38.25 76.2-37.38 77.59-36.5 77.59-35.2L77.59-35.2 77.59-5.55Q77.59-4.2 78.25-3.43 78.9-2.65 80.25-2.65 81.59-2.65 83.34-4.1L83.34-4.1 84.25-2.9Q80.25 0.75 76.25 0.75L76.25 0.75Q70.09 0.75 70.09-6.6L70.09-6.6 70.09-35.85Q67.34-35.15 65.89-33.4L65.89-33.4 64.55-34.95ZM90.97-30.68Q89.79-31.85 89.79-33.5 89.79-35.15 90.97-36.33 92.14-37.5 93.79-37.5 95.44-37.5 96.62-36.33 97.79-35.15 97.79-33.5 97.79-31.85 96.62-30.68 95.44-29.5 93.79-29.5 92.14-29.5 90.97-30.68ZM92.84-25.75L92.84-25.75Q97.54-25.75 97.54-21.7L97.54-21.7 97.54-5.55Q97.54-4.2 98.19-3.43 98.84-2.65 100.19-2.65 101.54-2.65 103.29-4.1L103.29-4.1 104.19-2.9Q100.19 0.75 96.19 0.75L96.19 0.75Q90.04 0.75 90.04-6.6L90.04-6.6 90.04-23.35Q87.29-22.65 85.84-20.9L85.84-20.9 84.49-22.45Q85.94-23.95 88.17-24.85 90.39-25.75 92.84-25.75ZM109.24-22.25L105.14-22.25 105.14-24.3 109.24-24.3 109.24-31.5 116.74-31.5 116.74-24.3 122.39-24.3 122.39-22.25 116.74-22.25 116.74-5.55Q116.74-4.2 117.39-3.43 118.04-2.65 119.39-2.65 120.74-2.65 122.49-4.1L122.49-4.1 123.39-2.9Q119.39 0.75 115.39 0.75L115.39 0.75Q109.24 0.75 109.24-6.6L109.24-6.6 109.24-22.25ZM133.84 0L126.14 0 126.14-2 128.64-2 138.14-16.05 129.29-33 126.64-33 126.64-35 136.59-35 143.19-22.4 149.04-35 156.74-35 156.74-33 154.24-33 144.89-19.15 152.39-4.9Q153.04-3.6 153.66-3.13 154.29-2.65 155.19-2.65L155.19-2.65Q156.89-2.65 158.34-4.1L158.34-4.1 159.44-2.9Q156.34 0.75 151.69 0.75L151.69 0.75Q149.34 0.75 147.74-0.03 146.14-0.8 145.09-2.85L145.09-2.85 139.79-12.9 133.84 0Z" opacity="1" transform="matrix(1,0,0,1,0,0)" fill="#001f3f" class="wordmark-text-0" data-fill-palette-color="primary" id="text-0"></path></svg></g></svg></g></svg></g></svg></g><g transform="matrix(1,0,0,1,0,0.31922137404579587)"><svg viewBox="0 0 127.68854961832056 127.68854961832056" height="127.68854961832056" width="127.68854961832056"><g><svg xmlns="http://www.w3.org/2000/svg" viewBox="2 2 60 60" x="0" y="0" height="127.68854961832056" width="127.68854961832056" class="icon-icon-0" data-fill-palette-color="accent" id="icon-0"><g fill="#2f84ff" data-fill-palette-color="accent"><path d="M61 6H58V3A1 1 0 0 0 57 2H40.123A6.26 6.26 0 0 0 35 4.668 6.26 6.26 0 0 0 29.877 2H13A1 1 0 0 0 12 3V6H9A1 1 0 0 0 8 7V24H10V8H12V24H14V4H29.877A4.275 4.275 0 0 1 34 7.13V22H36V7.13A4.275 4.275 0 0 1 40.123 4H48V11A1 1 0 0 0 49 12H56V41H46V43H57A1 1 0 0 0 58 42V8H60L59.838 44.923 46 45 46.01 47 60.844 46.917A1 1 0 0 0 61.838 45.917L62 10.628V7A1 1 0 0 0 61 6M56 8.586L51.414 4H56ZM50 10V5.414L54.586 10Z" fill="#2f84ff" data-fill-palette-color="accent"></path><rect x="16" y="10" width="16" height="2" fill="#2f84ff" data-fill-palette-color="accent"></rect><rect x="28" y="16" width="4" height="2" fill="#2f84ff" data-fill-palette-color="accent"></rect><rect x="16" y="16" width="10" height="2" fill="#2f84ff" data-fill-palette-color="accent"></rect><rect x="50" y="16" width="4" height="2" fill="#2f84ff" data-fill-palette-color="accent"></rect><rect x="38" y="16" width="10" height="2" fill="#2f84ff" data-fill-palette-color="accent"></rect><rect x="50" y="22" width="4" height="2" fill="#2f84ff" data-fill-palette-color="accent"></rect><rect x="38" y="22" width="10" height="2" fill="#2f84ff" data-fill-palette-color="accent"></rect><rect x="50" y="28" width="4" height="2" fill="#2f84ff" data-fill-palette-color="accent"></rect><rect x="42" y="28" width="6" height="2" fill="#2f84ff" data-fill-palette-color="accent"></rect><rect x="50" y="34" width="4" height="2" fill="#2f84ff" data-fill-palette-color="accent"></rect><rect x="42" y="34" width="6" height="2" fill="#2f84ff" data-fill-palette-color="accent"></rect><rect x="38" y="10" width="8" height="2" fill="#2f84ff" data-fill-palette-color="accent"></rect><path d="M7 62H39A1 1 0 0 0 40 61V53H43A1 1 0 0 0 44 52V42A1 1 0 0 0 43 41H40V27A1 1 0 0 0 39 26H34.249L33.976 24.781A1 1 0 0 0 32.713 24.042L28.675 25.253 25.861 20.491A1 1 0 0 0 24.491 20.139L14.572 26H7A5.006 5.006 0 0 0 2 31V57A5.006 5.006 0 0 0 7 62M42 51H35A4 4 0 0 1 35 43H42ZM35 41A6 6 0 0 0 35 53H38V60H7A3 3 0 0 1 4 57V35C4.039 35.03 4.084 35.051 4.124 35.079 4.205 35.136 4.291 35.186 4.375 35.239A5 5 0 0 0 4.903 35.526C5.003 35.57 5.096 35.613 5.196 35.652A5 5 0 0 0 5.796 35.838C5.89 35.861 5.98 35.89 6.076 35.908A5 5 0 0 0 7 36H38V41ZM38 28V34H36.044L34.7 28ZM33.995 34H7A3 3 0 0 1 6.611 33.961L32.259 26.267ZM24.648 22.37L26.7 25.845 10.584 30.681ZM7 28H11.187L4.221 32.117A3 3 0 0 1 4 31 3 3 0 0 1 7 28" fill="#2f84ff" data-fill-palette-color="accent"></path><circle cx="35" cy="47" r="2.0" fill="#2f84ff" data-fill-palette-color="accent"></circle><path d="M50 62A5.02 5.02 0 0 0 54.59 58.959C54.728 58.97 54.86 59 55 59A5 5 0 1 0 50.407 52.031C50.271 52.018 50.134 52 50 52A5 5 0 0 0 50 62M55 51A3 3 0 1 1 54.2 56.88L54.18 56.869A3 3 0 0 1 52.611 55.8 3 3 0 0 1 52.398 55.47C52.373 55.425 52.347 55.38 52.324 55.333A3 3 0 0 1 52.196 55.04C52.165 54.957 52.139 54.871 52.116 54.784S52.071 54.629 52.056 54.548A3 3 0 0 1 52 54 3.007 3.007 0 0 1 55 51M50 54A5 5 0 0 0 50.089 54.876C50.105 54.97 50.126 55.062 50.148 55.154A5 5 0 0 0 50.329 55.736C50.381 55.877 50.439 56.013 50.504 56.147A5 5 0 0 0 50.767 56.632 5 5 0 0 0 51.238 57.257 5 5 0 0 0 52.557 58.335C52.59 58.354 52.62 58.378 52.657 58.396A3 3 0 1 1 50 54" fill="#2f84ff" data-fill-palette-color="accent"></path></g></svg></g></svg></g></svg></g><defs></defs></svg><rect width="395.52" height="85.3022942469679" fill="none" stroke="none" visibility="hidden"></rect></g></svg></g></svg>