<svg xmlns="http://www.w3.org/2000/svg" version="1.1" xmlns:xlink="http://www.w3.org/1999/xlink" xmlns:svgjs="http://svgjs.dev/svgjs" width="2000" height="1252" viewBox="0 0 2000 1252"><g transform="matrix(1,0,0,1,-1.2121212121212466,-0.9092602839202755)"><svg viewBox="0 0 396 248" data-background-color="#ffffff" preserveAspectRatio="xMidYMid meet" height="1252" width="2000" xmlns="http://www.w3.org/2000/svg" xmlns:xlink="http://www.w3.org/1999/xlink"><g id="tight-bounds" transform="matrix(1,0,0,1,0.2400000000000091,0.618861269257394)"><svg viewBox="0 0 395.52 247.2" height="247.2" width="395.52"><g><svg></svg></g><g><svg viewBox="0 0 395.52 247.2" height="247.2" width="395.52"><mask id="d79ad13f-f43a-414d-8749-0cf127219de3"><rect width="640" height="400" fill="white"></rect><g transform="matrix(1,0,0,1,114.03249625282935,37.08)"><svg viewBox="0 0 167.4550074943413 173.04" height="173.04" width="167.4550074943413"><g><svg viewBox="0 0 167.4550074943413 173.04" height="173.04" width="167.4550074943413"><g><svg viewBox="0 0 167.4550074943413 173.04" height="173.04" width="167.4550074943413"><g><svg viewBox="0 0 167.4550074943413 173.04" height="173.04" width="167.4550074943413"><g id="SvgjsG1365"><svg viewBox="0 0 167.4550074943413 173.04" height="173.04" width="167.4550074943413" id="SvgjsSvg1364"><g><svg viewBox="0 0 167.4550074943413 173.04" height="173.04" width="167.4550074943413"><g transform="matrix(1,0,0,1,0,0)"><svg width="167.4550074943413" viewBox="-5.457857142857143 -40.5 43.47230157005314 44.89" height="173.04" data-palette-color="#0080ff"><path d="M14.84-31.1L18.09-24.71Q18.7-27.2 19.57-29.35 20.43-31.49 21.61-33.09 22.78-34.69 24.33-35.6 25.88-36.5 27.86-36.5L27.86-36.5Q29.1-36.5 30.18-36.29 31.25-36.08 32.08-35.72 32.91-35.35 33.42-34.85 33.94-34.35 34.01-33.74L34.01-33.74Q34.03-33.3 33.96-32.85 33.89-32.4 33.69-32.03 33.5-31.67 33.17-31.43 32.84-31.2 32.4-31.2L32.4-31.2Q32.13-31.2 31.93-31.47 31.74-31.74 31.53-32.13 31.32-32.52 31.04-33 30.76-33.47 30.33-33.86 29.91-34.25 29.27-34.52 28.64-34.79 27.71-34.79L27.71-34.79Q26.25-34.79 25.1-33.61 23.95-32.42 23.06-30.42 22.17-28.42 21.5-25.82 20.83-23.22 20.29-20.36L20.29-20.36 28.49-4.35Q28.98-3.37 29.55-2.88 30.13-2.39 30.91-2.39L30.91-2.39Q31.69-2.39 32.29-2.73 32.89-3.08 33.35-3.44L33.35-3.44 33.96-2.71Q33.45-2.2 32.7-1.65 31.96-1.1 31.03-0.65 30.1-0.2 29.04 0.1 27.98 0.39 26.81 0.39L26.81 0.39Q25.63 0.39 24.63 0.17 23.63-0.05 22.71-0.65 21.78-1.25 20.92-2.29 20.07-3.34 19.19-5L19.19-5 15.55-12.11Q14.89-9.47 13.96-7.19 13.04-4.91 11.78-3.22 10.52-1.54 8.89-0.57 7.25 0.39 5.2 0.39L5.2 0.39Q3.96 0.39 2.8 0.18 1.64-0.02 0.72-0.39-0.2-0.76-0.78-1.26-1.37-1.76-1.44-2.34L-1.44-2.34Q-1.49-2.78-1.4-3.23-1.32-3.69-1.12-4.05-0.93-4.42-0.61-4.66-0.29-4.91 0.15-4.91L0.15-4.91Q0.42-4.91 0.65-4.64 0.88-4.37 1.15-3.97 1.42-3.56 1.76-3.1 2.1-2.64 2.59-2.23 3.08-1.83 3.75-1.56 4.42-1.29 5.35-1.29L5.35-1.29Q6.84-1.29 8.07-2.55 9.3-3.81 10.28-5.91 11.25-8.01 12-10.77 12.74-13.53 13.31-16.5L13.31-16.5 5.54-31.74Q5.05-32.74 4.49-33.22 3.93-33.69 3.15-33.69L3.15-33.69Q2.37-33.69 1.76-33.36 1.15-33.03 0.71-32.64L0.71-32.64 0.1-33.4Q0.61-33.91 1.35-34.45 2.1-34.99 3.02-35.45 3.93-35.91 5-36.21 6.08-36.5 7.25-36.5L7.25-36.5Q8.42-36.5 9.42-36.28 10.42-36.06 11.34-35.46 12.26-34.86 13.12-33.81 13.99-32.76 14.84-31.1L14.84-31.1Z" opacity="1" transform="matrix(1,0,0,1,0,0)" fill="black" class="wordmark-text-0" id="SvgjsPath1363" stroke-width="7" stroke="black" stroke-linejoin="round"></path></svg></g></svg></g></svg></g></svg></g><g></g></svg></g></svg></g></svg></g></mask><g transform="matrix(1,0,0,1,114.03249625282935,37.08)"><svg viewBox="0 0 167.4550074943413 173.04" height="173.04" width="167.4550074943413"><g><svg viewBox="0 0 167.4550074943413 173.04" height="173.04" width="167.4550074943413"><g><svg viewBox="0 0 167.4550074943413 173.04" height="173.04" width="167.4550074943413"><g><svg viewBox="0 0 167.4550074943413 173.04" height="173.04" width="167.4550074943413"><g id="textblocktransform"><svg viewBox="0 0 167.4550074943413 173.04" height="173.04" width="167.4550074943413" id="textblock"><g><svg viewBox="0 0 167.4550074943413 173.04" height="173.04" width="167.4550074943413"><g transform="matrix(1,0,0,1,0,0)"><svg width="167.4550074943413" viewBox="-5.457857142857143 -40.5 43.47230157005314 44.89" height="173.04" data-palette-color="#0080ff"><path d="M14.84-31.1L18.09-24.71Q18.7-27.2 19.57-29.35 20.43-31.49 21.61-33.09 22.78-34.69 24.33-35.6 25.88-36.5 27.86-36.5L27.86-36.5Q29.1-36.5 30.18-36.29 31.25-36.08 32.08-35.72 32.91-35.35 33.42-34.85 33.94-34.35 34.01-33.74L34.01-33.74Q34.03-33.3 33.96-32.85 33.89-32.4 33.69-32.03 33.5-31.67 33.17-31.43 32.84-31.2 32.4-31.2L32.4-31.2Q32.13-31.2 31.93-31.47 31.74-31.74 31.53-32.13 31.32-32.52 31.04-33 30.76-33.47 30.33-33.86 29.91-34.25 29.27-34.52 28.64-34.79 27.71-34.79L27.71-34.79Q26.25-34.79 25.1-33.61 23.95-32.42 23.06-30.42 22.17-28.42 21.5-25.82 20.83-23.22 20.29-20.36L20.29-20.36 28.49-4.35Q28.98-3.37 29.55-2.88 30.13-2.39 30.91-2.39L30.91-2.39Q31.69-2.39 32.29-2.73 32.89-3.08 33.35-3.44L33.35-3.44 33.96-2.71Q33.45-2.2 32.7-1.65 31.96-1.1 31.03-0.65 30.1-0.2 29.04 0.1 27.98 0.39 26.81 0.39L26.81 0.39Q25.63 0.39 24.63 0.17 23.63-0.05 22.71-0.65 21.78-1.25 20.92-2.29 20.07-3.34 19.19-5L19.19-5 15.55-12.11Q14.89-9.47 13.96-7.19 13.04-4.91 11.78-3.22 10.52-1.54 8.89-0.57 7.25 0.39 5.2 0.39L5.2 0.39Q3.96 0.39 2.8 0.18 1.64-0.02 0.72-0.39-0.2-0.76-0.78-1.26-1.37-1.76-1.44-2.34L-1.44-2.34Q-1.49-2.78-1.4-3.23-1.32-3.69-1.12-4.05-0.93-4.42-0.61-4.66-0.29-4.91 0.15-4.91L0.15-4.91Q0.42-4.91 0.65-4.64 0.88-4.37 1.15-3.97 1.42-3.56 1.76-3.1 2.1-2.64 2.59-2.23 3.08-1.83 3.75-1.56 4.42-1.29 5.35-1.29L5.35-1.29Q6.84-1.29 8.07-2.55 9.3-3.81 10.28-5.91 11.25-8.01 12-10.77 12.74-13.53 13.31-16.5L13.31-16.5 5.54-31.74Q5.05-32.74 4.49-33.22 3.93-33.69 3.15-33.69L3.15-33.69Q2.37-33.69 1.76-33.36 1.15-33.03 0.71-32.64L0.71-32.64 0.1-33.4Q0.61-33.91 1.35-34.45 2.1-34.99 3.02-35.45 3.93-35.91 5-36.21 6.08-36.5 7.25-36.5L7.25-36.5Q8.42-36.5 9.42-36.28 10.42-36.06 11.34-35.46 12.26-34.86 13.12-33.81 13.99-32.76 14.84-31.1L14.84-31.1Z" opacity="1" transform="matrix(1,0,0,1,0,0)" fill="#0080ff" class="wordmark-text-0" data-fill-palette-color="primary" id="text-0"></path></svg></g></svg></g></svg></g></svg></g><g></g></svg></g></svg></g></svg></g><g mask="url(#d79ad13f-f43a-414d-8749-0cf127219de3)"><g transform="matrix(3.508320098439017, 0, 0, 3.508320098439017, 29.66761328353931, 1)"><svg xmlns="http://www.w3.org/2000/svg" xmlns:xlink="http://www.w3.org/1999/xlink" version="1.1" x="0" y="0" viewBox="-4371.006 2314.608 95.82500000000073 69.89099999999962" enable-background="new -4373.59 2297.933 100 100" xml:space="preserve" height="69.89099999999962" width="95.82500000000073" class="icon-none" data-fill-palette-color="accent" id="none"><path d="M-4324.684 2357.329H-4367.051V2333.576H-4305.21V2336.083A23 23 0 0 1-4301.257 2335.817V2316.585A1.977 1.977 0 0 0-4303.234 2314.608H-4369.028A1.98 1.98 0 0 0-4371.006 2316.585V2359.306C-4371.006 2360.398-4370.12 2361.283-4369.028 2361.283H-4324.612A23.4 23.4 0 0 1-4324.684 2357.329M-4367.051 2318.56H-4305.21V2324.523H-4367.051z" fill="#010c80" data-fill-palette-color="accent"></path><path d="M-4298.242 2384.499C-4310.959 2384.499-4321.304 2374.152-4321.304 2361.437-4321.304 2348.72-4310.958 2338.375-4298.242 2338.375-4285.527 2338.375-4275.181 2348.721-4275.181 2361.437-4275.182 2374.152-4285.527 2384.499-4298.242 2384.499M-4298.242 2342.329C-4308.778 2342.329-4317.35 2350.9-4317.35 2361.437-4317.35 2371.973-4308.778 2380.544-4298.242 2380.544S-4279.136 2371.973-4279.136 2361.437C-4279.136 2350.9-4287.706 2342.329-4298.242 2342.329" fill="#010c80" data-fill-palette-color="accent"></path><g fill="#010c80" data-fill-palette-color="accent"><path d="M-4297.518 2373.487C-4302.312 2373.487-4306.171 2370.61-4306.491 2366.798A1.794 1.794 0 0 1-4304.851 2364.858 1.78 1.78 0 0 1-4302.913 2366.497C-4302.755 2368.372-4300.335 2369.896-4297.522 2369.896-4294.596 2369.896-4292.126 2368.25-4292.126 2366.302-4292.126 2364.548-4293.832 2363.419-4297.485 2362.744L-4297.873 2362.672C-4303.704 2361.598-4306.498 2359.211-4306.498 2355.521-4306.498 2351.557-4302.466 2348.333-4297.51 2348.333-4292.717 2348.333-4288.862 2351.207-4288.536 2355.024A1.796 1.796 0 0 1-4290.176 2356.964C-4291.143 2357.09-4292.035 2356.315-4292.117 2355.326-4292.274 2353.454-4294.693 2351.925-4297.506 2351.925-4300.432 2351.925-4302.902 2353.572-4302.902 2355.52-4302.902 2357.273-4301.194 2358.403-4297.537 2359.079L-4297.141 2359.153C-4291.32 2360.227-4288.528 2362.61-4288.528 2366.305-4288.53 2370.265-4292.562 2373.487-4297.518 2373.487" fill="#010c80" data-fill-palette-color="accent"></path></g><g fill="#010c80" data-fill-palette-color="accent"><path d="M-4297.516 2377.082A1.8 1.8 0 0 1-4299.312 2375.286V2346.536A1.798 1.798 0 0 1-4295.718 2346.536V2375.286C-4295.718 2376.276-4296.522 2377.082-4297.516 2377.082" fill="#010c80" data-fill-palette-color="accent"></path></g></svg></g></g></svg></g><defs></defs></svg><rect width="395.52" height="247.2" fill="none" stroke="none" visibility="hidden"></rect></g></svg></g></svg>