<svg xmlns="http://www.w3.org/2000/svg" version="1.1" xmlns:xlink="http://www.w3.org/1999/xlink" xmlns:svgjs="http://svgjs.dev/svgjs" width="2000" height="1252" viewBox="0 0 2000 1252"><g transform="matrix(1,0,0,1,-1.2121212121212466,-0.9092602839202755)"><svg viewBox="0 0 396 248" data-background-color="#ffffff" preserveAspectRatio="xMidYMid meet" height="1252" width="2000" xmlns="http://www.w3.org/2000/svg" xmlns:xlink="http://www.w3.org/1999/xlink"><g id="tight-bounds" transform="matrix(1,0,0,1,0.2400000000000091,0.618861269257394)"><svg viewBox="0 0 395.52 247.2" height="247.2" width="395.52"><g><svg></svg></g><g><svg viewBox="0 0 395.52 247.2" height="247.2" width="395.52"><mask id="6cf5f228-a066-4f7c-bb60-2a645158349a"><rect width="640" height="400" fill="white"></rect><g transform="matrix(1,0,0,1,95.87027539892797,37.08)"><svg viewBox="0 0 203.77944920214404 173.04" height="173.04" width="203.77944920214404"><g><svg viewBox="0 0 203.77944920214404 173.04" height="173.04" width="203.77944920214404"><g><svg viewBox="0 0 203.77944920214404 173.04" height="173.04" width="203.77944920214404"><g><svg viewBox="0 0 203.77944920214404 173.04" height="173.04" width="203.77944920214404"><g id="SvgjsG1996"><svg viewBox="0 0 203.77944920214404 173.04" height="173.04" width="203.77944920214404" id="SvgjsSvg1995"><g><svg viewBox="0 0 203.77944920214404 173.04" height="173.04" width="203.77944920214404"><g transform="matrix(1,0,0,1,0,0)"><svg width="203.77944920214404" viewBox="-4 -40.5 57 48.55" height="173.04" data-palette-color="#0080ff"><path d="M20.41-33.11L20.41-3.2Q20.41-1.32 19.42-0.46 18.43 0.39 16.41 0.39L16.41 0.39Q14.36 0.39 13.38-0.46 12.4-1.32 12.4-3.2L12.4-3.2 12.4-32.59Q12.4-33.13 12.28-33.45 12.16-33.76 11.94-33.95 11.72-34.13 11.41-34.19 11.11-34.25 10.74-34.25L10.74-34.25Q10.21-34.25 9.41-34.08 8.62-33.91 7.74-33.57 6.86-33.23 5.97-32.73 5.08-32.23 4.38-31.59 3.69-30.96 3.25-30.18 2.81-29.39 2.81-28.49L2.81-28.49Q2.81-27.71 3.02-27.25 3.22-26.78 3.49-26.55 3.76-26.32 4.04-26.26 4.32-26.2 4.44-26.2L4.44-26.2Q5.05-26.2 5.44-26.4 5.83-26.61 6.15-26.84 6.47-27.08 6.75-27.28 7.03-27.49 7.4-27.49L7.4-27.49Q7.69-27.49 8.02-27.36 8.35-27.22 8.63-26.93 8.91-26.64 9.11-26.16 9.3-25.68 9.3-25L9.3-25Q9.3-24.02 8.92-23.32 8.54-22.61 7.95-22.13 7.35-21.66 6.58-21.42 5.81-21.19 5.05-21.19L5.05-21.19Q3.88-21.19 2.94-21.59 2-22 1.34-22.71 0.68-23.41 0.34-24.37 0-25.32 0-26.39L0-26.39Q0-28.08 0.61-29.48 1.22-30.88 2.28-32.01 3.34-33.13 4.77-33.97 6.2-34.81 7.86-35.38 9.52-35.94 11.33-36.22 13.13-36.5 14.94-36.5L14.94-36.5Q16.94-36.5 18.05-36.12 19.17-35.74 19.69-35.21 20.21-34.67 20.31-34.08 20.41-33.5 20.41-33.11L20.41-33.11ZM41.5-12.16L41.5-12.16Q41.5-15.23 41.22-17.08 40.94-18.92 40.48-19.89 40.01-20.85 39.45-21.15 38.89-21.46 38.3-21.46L38.3-21.46Q37.6-21.46 37.05-21.08 36.5-20.7 36.09-20.21 35.69-19.73 35.41-19.24 35.13-18.75 34.93-18.51L34.93-18.51 34.93-2.2Q34.93-1.88 34.84-1.43 34.74-0.98 34.36-0.57 33.98-0.17 33.24 0.11 32.49 0.39 31.2 0.39L31.2 0.39Q29.9 0.39 29.16 0.09 28.42-0.22 28.02-0.63 27.63-1.05 27.54-1.49 27.44-1.93 27.44-2.2L27.44-2.2 27.44-21.04Q27.44-21.75 27.11-22.28 26.78-22.8 26-22.8L26-22.8Q25.58-22.8 25.29-22.66 25-22.51 24.66-22.24L24.66-22.24 24.14-22.85Q24.7-23.32 25.4-23.77 26.1-24.22 26.9-24.56 27.71-24.9 28.64-25.12 29.56-25.34 30.59-25.34L30.59-25.34Q32.18-25.34 33.05-24.82 33.93-24.29 34.35-23.56 34.76-22.83 34.85-22.03 34.93-21.24 34.93-20.7L34.93-20.7Q35.84-22 36.98-23.02L36.98-23.02Q37.45-23.46 38.02-23.88 38.6-24.29 39.24-24.62 39.89-24.95 40.61-25.15 41.33-25.34 42.09-25.34L42.09-25.34Q43.75-25.34 45.03-24.71 46.31-24.07 47.19-22.58 48.07-21.09 48.53-18.64 49-16.19 49-12.55L49-12.55Q49-9.01 48.36-6.4 47.73-3.78 46.7-1.95 45.68-0.12 44.38 1.04 43.09 2.2 41.77 2.86 40.45 3.52 39.24 3.77 38.03 4.03 37.16 4.05L37.16 4.05 36.89 3.05Q37.62 2.88 38.24 2.51 38.86 2.15 39.38 1.44 39.89 0.73 40.28-0.35 40.67-1.44 40.95-3.08 41.23-4.71 41.37-6.95 41.5-9.18 41.5-12.16Z" opacity="1" transform="matrix(1,0,0,1,0,0)" fill="black" class="wordmark-text-0" id="SvgjsPath1994" stroke-width="7" stroke="black" stroke-linejoin="round"></path></svg></g></svg></g></svg></g></svg></g><g></g></svg></g></svg></g></svg></g></mask><g transform="matrix(1,0,0,1,95.87027539892797,37.08)"><svg viewBox="0 0 203.77944920214404 173.04" height="173.04" width="203.77944920214404"><g><svg viewBox="0 0 203.77944920214404 173.04" height="173.04" width="203.77944920214404"><g><svg viewBox="0 0 203.77944920214404 173.04" height="173.04" width="203.77944920214404"><g><svg viewBox="0 0 203.77944920214404 173.04" height="173.04" width="203.77944920214404"><g id="textblocktransform"><svg viewBox="0 0 203.77944920214404 173.04" height="173.04" width="203.77944920214404" id="textblock"><g><svg viewBox="0 0 203.77944920214404 173.04" height="173.04" width="203.77944920214404"><g transform="matrix(1,0,0,1,0,0)"><svg width="203.77944920214404" viewBox="-4 -40.5 57 48.55" height="173.04" data-palette-color="#0080ff"><path d="M20.41-33.11L20.41-3.2Q20.41-1.32 19.42-0.46 18.43 0.39 16.41 0.39L16.41 0.39Q14.36 0.39 13.38-0.46 12.4-1.32 12.4-3.2L12.4-3.2 12.4-32.59Q12.4-33.13 12.28-33.45 12.16-33.76 11.94-33.95 11.72-34.13 11.41-34.19 11.11-34.25 10.74-34.25L10.74-34.25Q10.21-34.25 9.41-34.08 8.62-33.91 7.74-33.57 6.86-33.23 5.97-32.73 5.08-32.23 4.38-31.59 3.69-30.96 3.25-30.18 2.81-29.39 2.81-28.49L2.81-28.49Q2.81-27.71 3.02-27.25 3.22-26.78 3.49-26.55 3.76-26.32 4.04-26.26 4.32-26.2 4.44-26.2L4.44-26.2Q5.05-26.2 5.44-26.4 5.83-26.61 6.15-26.84 6.47-27.08 6.75-27.28 7.03-27.49 7.4-27.49L7.4-27.49Q7.69-27.49 8.02-27.36 8.35-27.22 8.63-26.93 8.91-26.64 9.11-26.16 9.3-25.68 9.3-25L9.3-25Q9.3-24.02 8.92-23.32 8.54-22.61 7.95-22.13 7.35-21.66 6.58-21.42 5.81-21.19 5.05-21.19L5.05-21.19Q3.88-21.19 2.94-21.59 2-22 1.34-22.71 0.68-23.41 0.34-24.37 0-25.32 0-26.39L0-26.39Q0-28.08 0.61-29.48 1.22-30.88 2.28-32.01 3.34-33.13 4.77-33.97 6.2-34.81 7.86-35.38 9.52-35.94 11.33-36.22 13.13-36.5 14.94-36.5L14.94-36.5Q16.94-36.5 18.05-36.12 19.17-35.74 19.69-35.21 20.21-34.67 20.31-34.08 20.41-33.5 20.41-33.11L20.41-33.11ZM41.5-12.16L41.5-12.16Q41.5-15.23 41.22-17.08 40.94-18.92 40.48-19.89 40.01-20.85 39.45-21.15 38.89-21.46 38.3-21.46L38.3-21.46Q37.6-21.46 37.05-21.08 36.5-20.7 36.09-20.21 35.69-19.73 35.41-19.24 35.13-18.75 34.93-18.51L34.93-18.51 34.93-2.2Q34.93-1.88 34.84-1.43 34.74-0.98 34.36-0.57 33.98-0.17 33.24 0.11 32.49 0.39 31.2 0.39L31.2 0.39Q29.9 0.39 29.16 0.09 28.42-0.22 28.02-0.63 27.63-1.05 27.54-1.49 27.44-1.93 27.44-2.2L27.44-2.2 27.44-21.04Q27.44-21.75 27.11-22.28 26.78-22.8 26-22.8L26-22.8Q25.58-22.8 25.29-22.66 25-22.51 24.66-22.24L24.66-22.24 24.14-22.85Q24.7-23.32 25.4-23.77 26.1-24.22 26.9-24.56 27.71-24.9 28.64-25.12 29.56-25.34 30.59-25.34L30.59-25.34Q32.18-25.34 33.05-24.82 33.93-24.29 34.35-23.56 34.76-22.83 34.85-22.03 34.93-21.24 34.93-20.7L34.93-20.7Q35.84-22 36.98-23.02L36.98-23.02Q37.45-23.46 38.02-23.88 38.6-24.29 39.24-24.62 39.89-24.95 40.61-25.15 41.33-25.34 42.09-25.34L42.09-25.34Q43.75-25.34 45.03-24.71 46.31-24.07 47.19-22.58 48.07-21.09 48.53-18.64 49-16.19 49-12.55L49-12.55Q49-9.01 48.36-6.4 47.73-3.78 46.7-1.95 45.68-0.12 44.38 1.04 43.09 2.2 41.77 2.86 40.45 3.52 39.24 3.77 38.03 4.03 37.16 4.05L37.16 4.05 36.89 3.05Q37.62 2.88 38.24 2.51 38.86 2.15 39.38 1.44 39.89 0.73 40.28-0.35 40.67-1.44 40.95-3.08 41.23-4.71 41.37-6.95 41.5-9.18 41.5-12.16Z" opacity="1" transform="matrix(1,0,0,1,0,0)" fill="#0080ff" class="wordmark-text-0" data-fill-palette-color="primary" id="text-0"></path></svg></g></svg></g></svg></g></svg></g><g></g></svg></g></svg></g></svg></g><g mask="url(#6cf5f228-a066-4f7c-bb60-2a645158349a)"><g transform="matrix(3.508320098439017, 0, 0, 3.508320098439017, 29.66761328353931, 1)"><svg xmlns="http://www.w3.org/2000/svg" xmlns:xlink="http://www.w3.org/1999/xlink" version="1.1" x="0" y="0" viewBox="-4371.006 2314.608 95.82500000000073 69.89099999999962" enable-background="new -4373.59 2297.933 100 100" xml:space="preserve" height="69.89099999999962" width="95.82500000000073" class="icon-none" data-fill-palette-color="accent" id="none"><path d="M-4324.684 2357.329H-4367.051V2333.576H-4305.21V2336.083A23 23 0 0 1-4301.257 2335.817V2316.585A1.977 1.977 0 0 0-4303.234 2314.608H-4369.028A1.98 1.98 0 0 0-4371.006 2316.585V2359.306C-4371.006 2360.398-4370.12 2361.283-4369.028 2361.283H-4324.612A23.4 23.4 0 0 1-4324.684 2357.329M-4367.051 2318.56H-4305.21V2324.523H-4367.051z" fill="#010c80" data-fill-palette-color="accent"></path><path d="M-4298.242 2384.499C-4310.959 2384.499-4321.304 2374.152-4321.304 2361.437-4321.304 2348.72-4310.958 2338.375-4298.242 2338.375-4285.527 2338.375-4275.181 2348.721-4275.181 2361.437-4275.182 2374.152-4285.527 2384.499-4298.242 2384.499M-4298.242 2342.329C-4308.778 2342.329-4317.35 2350.9-4317.35 2361.437-4317.35 2371.973-4308.778 2380.544-4298.242 2380.544S-4279.136 2371.973-4279.136 2361.437C-4279.136 2350.9-4287.706 2342.329-4298.242 2342.329" fill="#010c80" data-fill-palette-color="accent"></path><g fill="#010c80" data-fill-palette-color="accent"><path d="M-4297.518 2373.487C-4302.312 2373.487-4306.171 2370.61-4306.491 2366.798A1.794 1.794 0 0 1-4304.851 2364.858 1.78 1.78 0 0 1-4302.913 2366.497C-4302.755 2368.372-4300.335 2369.896-4297.522 2369.896-4294.596 2369.896-4292.126 2368.25-4292.126 2366.302-4292.126 2364.548-4293.832 2363.419-4297.485 2362.744L-4297.873 2362.672C-4303.704 2361.598-4306.498 2359.211-4306.498 2355.521-4306.498 2351.557-4302.466 2348.333-4297.51 2348.333-4292.717 2348.333-4288.862 2351.207-4288.536 2355.024A1.796 1.796 0 0 1-4290.176 2356.964C-4291.143 2357.09-4292.035 2356.315-4292.117 2355.326-4292.274 2353.454-4294.693 2351.925-4297.506 2351.925-4300.432 2351.925-4302.902 2353.572-4302.902 2355.52-4302.902 2357.273-4301.194 2358.403-4297.537 2359.079L-4297.141 2359.153C-4291.32 2360.227-4288.528 2362.61-4288.528 2366.305-4288.53 2370.265-4292.562 2373.487-4297.518 2373.487" fill="#010c80" data-fill-palette-color="accent"></path></g><g fill="#010c80" data-fill-palette-color="accent"><path d="M-4297.516 2377.082A1.8 1.8 0 0 1-4299.312 2375.286V2346.536A1.798 1.798 0 0 1-4295.718 2346.536V2375.286C-4295.718 2376.276-4296.522 2377.082-4297.516 2377.082" fill="#010c80" data-fill-palette-color="accent"></path></g></svg></g></g></svg></g><defs></defs></svg><rect width="395.52" height="247.2" fill="none" stroke="none" visibility="hidden"></rect></g></svg></g></svg>